<?xml version="1.0" encoding="UTF-8"?>
<svg xmlns="http://www.w3.org/2000/svg" xmlns:xlink="http://www.w3.org/1999/xlink" viewBox="0 0 959.44 350.34">
  <defs>
    <style>
      .cls-1, .cls-2 {
        fill: none;
      }

      .cls-3 {
        stroke-width: .15px;
      }

      .cls-3, .cls-4, .cls-5 {
        fill: #fff;
      }

      .cls-3, .cls-4, .cls-5, .cls-6, .cls-2 {
        stroke: #231f20;
        stroke-miterlimit: 10;
      }

      .cls-7 {
        clip-path: url(#clippath);
      }

      .cls-8 {
        fill: #010101;
      }

      .cls-9, .cls-6 {
        fill: #c92127;
      }

      .cls-4 {
        stroke-width: .2px;
      }

      .cls-5 {
        stroke-width: .25px;
      }

      .cls-10 {
        clip-path: url(#clippath-1);
      }

      .cls-11 {
        filter: url(#drop-shadow-3);
      }

      .cls-12 {
        fill: transparent;
      }
    </style>
    <filter id="drop-shadow-1" filterUnits="userSpaceOnUse">
      <feOffset dx="8" dy="18"/>
      <feGaussianBlur result="blur" stdDeviation="20"/>
      <feFlood flood-color="#070808" flood-opacity=".75"/>
      <feComposite in2="blur" operator="in"/>
      <feComposite in="SourceGraphic"/>
    </filter>
    <filter id="drop-shadow-2" filterUnits="userSpaceOnUse">
      <feOffset dx="8" dy="18"/>
      <feGaussianBlur result="blur-2" stdDeviation="20"/>
      <feFlood flood-color="#070808" flood-opacity=".75"/>
      <feComposite in2="blur-2" operator="in"/>
      <feComposite in="SourceGraphic"/>
    </filter>
    <filter id="drop-shadow-3" filterUnits="userSpaceOnUse">
      <feOffset dx="8" dy="18"/>
      <feGaussianBlur result="blur-3" stdDeviation="20"/>
      <feFlood flood-color="#070808" flood-opacity=".75"/>
      <feComposite in2="blur-3" operator="in"/>
      <feComposite in="SourceGraphic"/>
    </filter>
    <clipPath id="clippath">
      <rect class="cls-1" x="728.44" y="158.69" width="177.67" height="83.14"/>
    </clipPath>
    <clipPath id="clippath-1">
      <rect class="cls-1" x="59.92" y="158.69" width="177.67" height="83.14"/>
    </clipPath>
    <filter id="drop-shadow-4" filterUnits="userSpaceOnUse">
      <feOffset dx="8" dy="18"/>
      <feGaussianBlur result="blur-4" stdDeviation="20"/>
      <feFlood flood-color="#070808" flood-opacity=".75"/>
      <feComposite in2="blur-4" operator="in"/>
      <feComposite in="SourceGraphic"/>
    </filter>
    <filter id="drop-shadow-5" filterUnits="userSpaceOnUse">
      <feOffset dx="8" dy="18"/>
      <feGaussianBlur result="blur-5" stdDeviation="20"/>
      <feFlood flood-color="#070808" flood-opacity=".75"/>
      <feComposite in2="blur-5" operator="in"/>
      <feComposite in="SourceGraphic"/>
    </filter>
    <filter id="drop-shadow-6" filterUnits="userSpaceOnUse">
      <feOffset dx="8" dy="18"/>
      <feGaussianBlur result="blur-6" stdDeviation="20"/>
      <feFlood flood-color="#070808" flood-opacity=".75"/>
      <feComposite in2="blur-6" operator="in"/>
      <feComposite in="SourceGraphic"/>
    </filter>
  </defs>
  <g id="_2D_BRACELET_UNICOLOR_SMALL_HIDDEN" data-name="2D BRACELET UNICOLOR SMALL" class="cls-11">
    <g id="left_string" data-name="left string">
      <g id="left_end" data-name="left end">
        <g>
          <path class="cls-8" d="M619.88,122.65l-6.79-.72c-36.35-3.84-100.32-14.4-100.96-14.51l.47-1.86c.6,.1,56.53,9.33,93.39,13.66-44.57-16.86-92.23-20.57-92.72-20.61l.06-1.91c.54,.04,53.62,4.16,100.57,23.48l5.98,2.46Z"/>
          <path class="cls-5" d="M515.17,125.27c-3.01-.32-4.72-.55-4.81-.56l.35-1.88c.49,.07,47.88,6.41,94.98-.76-36.95-3.48-93.57-6.14-94.18-6.17l-.07-1.92c.65,.03,65.41,3.08,101.76,6.92l6.79,.72-6.36,1.16c-41.18,7.48-84.29,3.99-98.45,2.49Z"/>
        </g>
        <path class="cls-8" d="M611.38,117.44l-.79,7.5c-.2,1.89,2.06,3.7,5.03,4.02h0c2.97,.31,5.56-.98,5.76-2.87l.79-7.5c.2-1.89-2.06-3.7-5.03-4.02h0c-2.97-.31-5.56,.98-5.76,2.87Z"/>
      </g>
      <g id="left_path" data-name="left path">
        <polygon class="cls-5" points="852.74 158.41 852.51 158.38 889.14 140.1 891.07 139.14 908.54 140.99 906.77 141.97 870.14 160.25 852.74 158.41"/>
        <polygon class="cls-8" points="619.58 118.31 625.57 111.07 644.05 113.03 618.79 125.81 619.58 118.31"/>
        <polygon class="cls-8" points="834.95 156.53 834.72 156.5 871.35 138.22 873.28 137.26 890.75 139.11 888.99 140.09 852.36 158.37 834.95 156.53"/>
        <polygon class="cls-5" points="817.32 154.66 817.09 154.64 853.72 136.36 855.65 135.4 873.12 137.25 871.35 138.22 834.72 156.5 817.32 154.66"/>
        <polygon class="cls-8" points="799.69 152.8 799.46 152.77 836.09 134.5 838.01 133.53 855.48 135.38 853.72 136.36 817.09 154.64 799.69 152.8"/>
        <polygon class="cls-3" points="782.05 150.93 781.82 150.91 818.45 132.63 820.38 131.67 837.85 133.52 836.09 134.5 799.46 152.77 782.05 150.93"/>
        <polygon class="cls-8" points="764.42 149.07 764.19 149.05 800.82 130.77 802.75 129.81 820.22 131.65 818.45 132.63 781.82 150.91 764.42 149.07"/>
        <polygon class="cls-3" points="746.79 147.21 746.56 147.18 783.19 128.9 785.12 127.94 802.58 129.79 800.82 130.77 764.19 149.05 746.79 147.21"/>
        <polygon class="cls-8" points="729.16 145.34 728.93 145.32 765.56 127.04 767.48 126.08 784.95 127.92 783.19 128.9 746.56 147.18 729.16 145.34"/>
        <polygon class="cls-3" points="711.52 143.48 711.29 143.45 747.92 125.18 749.85 124.21 767.32 126.06 765.56 127.04 728.93 145.32 711.52 143.48"/>
        <polygon class="cls-8" points="693.89 141.61 693.66 141.59 730.29 123.31 732.22 122.35 749.69 124.2 747.92 125.18 711.29 143.45 693.89 141.61"/>
        <polygon class="cls-3" points="676.26 139.75 676.03 139.72 712.66 121.45 714.58 120.49 732.05 122.33 730.29 123.31 693.66 141.59 676.26 139.75"/>
        <polygon class="cls-8" points="658.62 137.88 658.39 137.86 695.03 119.58 696.95 118.62 714.42 120.47 712.66 121.45 676.03 139.72 658.62 137.88"/>
        <polygon class="cls-3" points="640.99 136.02 640.76 136 677.39 117.72 679.32 116.76 696.79 118.6 695.03 119.58 658.39 137.86 640.99 136.02"/>
        <polygon class="cls-8" points="623.36 134.16 623.13 134.13 659.76 115.85 661.69 114.89 679.15 116.74 677.39 117.72 640.76 136 623.36 134.16"/>
        <path class="cls-3" d="M618.8,125.63l25.25-12.6,17.47,1.85-1.76,.98-36.63,18.28h0c-2.08-4.1-2.24-4.4-4.32-8.51Z"/>
      </g>
    </g>
    <g id="right_string" data-name="right string">
      <g id="right_end" data-name="right end">
        <g>
          <path class="cls-8" d="M334.21,121.93l6.78-.84c36.28-4.49,100.97-8.68,101.62-8.72l-.04,1.92c-.61,.04-57.18,3.71-94.06,7.84,47.23,6.33,94.49-.85,94.98-.92l.38,1.87c-.53,.08-53.17,8.09-103.28-.1l-6.38-1.04Z"/>
          <path class="cls-5" d="M435.61,95.67c3.01-.37,4.72-.53,4.81-.54l.09,1.91c-.49,.05-48.09,4.6-92.34,22.25,36.78-4.98,92.53-15.2,93.13-15.31l.5,1.85c-.64,.12-64.41,11.81-100.69,16.3l-6.78,.84,5.93-2.57c38.42-16.61,81.2-22.97,95.33-24.72Z"/>
        </g>
        <path class="cls-8" d="M343.66,125.09l-.93-7.49c-.23-1.89-2.85-3.14-5.81-2.77h0c-2.96,.37-5.19,2.21-4.96,4.1l.93,7.49c.23,1.89,2.85,3.14,5.81,2.77h0c2.96-.37,5.19-2.21,4.96-4.1Z"/>
      </g>
      <g id="right_path" data-name="right path">
        <polygon class="cls-8" points="335.49 126.1 331.29 134.5 312.84 136.78 334.56 118.61 335.49 126.1"/>
        <polygon class="cls-8" points="117.05 137.63 117.28 137.6 85.74 163.7 84.08 165.07 66.65 167.23 68.14 165.88 99.68 139.78 117.05 137.63"/>
        <polygon class="cls-5" points="134.65 135.46 134.88 135.43 103.34 161.52 101.68 162.9 84.24 165.05 85.74 163.7 117.28 137.6 134.65 135.46"/>
        <polygon class="cls-8" points="152.25 133.28 152.48 133.25 120.93 159.35 119.28 160.72 101.84 162.88 103.34 161.52 134.88 135.43 152.25 133.28"/>
        <polygon class="cls-3" points="169.84 131.1 170.07 131.07 138.53 157.17 136.87 158.54 119.44 160.7 120.93 159.35 152.48 133.25 169.84 131.1"/>
        <polygon class="cls-8" points="187.44 128.93 187.67 128.9 156.13 154.99 154.47 156.37 137.04 158.52 138.53 157.17 170.07 131.07 187.44 128.93"/>
        <polygon class="cls-3" points="205.04 126.75 205.27 126.72 173.73 152.82 172.07 154.19 154.63 156.35 156.13 154.99 187.67 128.9 205.04 126.75"/>
        <polygon class="cls-8" points="222.63 124.57 222.86 124.55 191.32 150.64 189.66 152.01 172.23 154.17 173.73 152.82 205.27 126.72 222.63 124.57"/>
        <polygon class="cls-3" points="240.23 122.4 240.46 122.37 208.92 148.47 207.26 149.84 189.83 151.99 191.32 150.64 222.86 124.55 240.23 122.4"/>
        <polygon class="cls-8" points="257.83 120.22 258.06 120.19 226.52 146.29 224.86 147.66 207.42 149.82 208.92 148.47 240.46 122.37 257.83 120.22"/>
        <polygon class="cls-3" points="275.43 118.04 275.66 118.02 244.11 144.11 242.46 145.49 225.02 147.64 226.52 146.29 258.06 120.19 275.43 118.04"/>
        <polygon class="cls-8" points="293.02 115.87 293.25 115.84 261.71 141.94 260.05 143.31 242.62 145.46 244.11 144.11 275.66 118.02 293.02 115.87"/>
        <polygon class="cls-3" points="310.62 113.69 310.85 113.66 279.31 139.76 277.65 141.13 260.22 143.29 261.71 141.94 293.25 115.84 310.62 113.69"/>
        <polygon class="cls-8" points="328.22 111.52 328.45 111.49 296.91 137.58 295.25 138.96 277.81 141.11 279.31 139.76 310.85 113.66 328.22 111.52"/>
        <path class="cls-3" d="M334.58,118.79l-21.74,17.99-17.43,2.16,1.5-1.35,31.54-26.1h0c2.96,3.52,3.18,3.78,6.14,7.31Z"/>
      </g>
    </g>
    <path id="RIGHT_SIDE_1" data-name="RIGHT SIDE 1" class="cls-6" d="M772.63,165.06c10.38,.98,21.34,2.33,32.81,4.17,9.84,1.58,19.21,3.38,28.08,5.32l73.69-4.43c1.3-13.16,2.21-22.85,2.53-26.02,.04-.41,.15-1.5-.19-2.84-.61-2.42-2.23-3.94-2.94-4.57-10.83-9.57-37.45-15.44-37.45-15.44-12.32-2.72-18.48-4.08-20.59-4.49-21.33-4.18-38.55-6.35-52.57-8.1-4.64-.58-11.15-1.34-18.98-2.19l-34.1,14.24c-.76,9.16-1.52,18.32-2.28,27.48,10.67,5.63,21.34,11.25,32.01,16.88Z"/>
    <path id="RIGHT_SIDE_2" data-name="RIGHT SIDE 2" class="cls-6" d="M909.73,144.09c-.36,3.37-2.54,6.06-2.75,6.31-1.03,1.23-2.07,1.95-2.5,2.24-5.78,3.87-18.12,8.63-20.82,9.66-6.8,2.27-16.73,5.32-28.95,8.12-12.59,2.89-22.32,4.34-27.81,5.08-64.59,8.77-90.43,10.8-90.43,10.8-5.15,.35-10.12,.69-14.93,1.01v58.99c13.99-1.27,44.91-4.25,73.08-8.13,13.1-1.81,24.36-3.65,28.13-4.28,15.93-2.64,25.44-4.58,28.4-5.2,8.37-1.74,13.91-2.93,19.64-4.5,2.5-.69,4.66-1.35,6.46-1.91,6.56-2.06,12.1-3.82,18.62-7.04,5.92-2.93,8.59-5.06,10.18-6.48,1.81-1.61,3.16-3.13,4.06-4.23v-61.93"/>
    <path id="CENTER_BENDED" data-name="CENTER BENDED" class="cls-6" d="M721.18,246.19c-5.38,.44-8.52,.67-8.52,.67-43.68,3.29-76.68,4.53-106.85,5.63-9.68,.35-45.1,1.6-92.65,2.17-28.89,.34-72.83,.82-130.74-.58-18.25-.44-61.37-1.63-116.54-4.91,0,0-6.97-.41-18.74-1.25v-58.24c.77,.05,1.54,.1,2.3,.15,52.4,3.31,93.29,4.49,107.79,4.88,95.12,2.57,169.7,1.13,199.82,.4,51.55-1.24,91.36-3.52,164.12-7.92"/>
    <path id="line_curved" data-name="line curved" class="cls-12" d="M709.08,241.69c-42.47,3.15-74.79,4.37-104.39,5.45-9.68,.35-45.1,1.6-92.65,2.17-28.89,.34-72.83,.82-130.74-.58-18.25-.44-61.37-1.63-116.54-4.91,0,0-2.32-.14-6.54-.41v-3.71c4.22,.28,6.54,.41,6.54,.41,55.16,3.28,98.29,4.47,116.54,4.91,57.91,1.39,101.85,.92,130.74,.58,47.55-.56,82.97-1.81,92.65-2.17,29.6-1.08,61.92-2.29,104.39-5.45v3.71Z"/>
    <text font-size="7em" font-family='Low Gun Screen'>
      <textPath id="MAIN_NAME" fill="white" xlink:href="#line_curved" startOffset="75%" text-anchor="middle">
        NAME
      </textPath>
    </text>
    <path id="LEFT_SIDE_1" data-name="LEFT SIDE 1" class="cls-6" d="M182.75,168.94c-8.15,.96-16.56,2.11-25.21,3.47-8.38,1.32-16.47,2.76-24.28,4.29l-73.32-.76c-.85-6.15-2.79-21.28-2.06-28.61,.06-.57,.15-1.32,.44-2.24,1.5-4.79,6.06-7.35,10.16-9.62,1.76-.97,3.52-1.71,7.03-3.17,3.9-1.63,8.52-3.35,8.52-3.35h0c7.74-2.89,23.08-7.68,64.19-14.63,10.29-1.74,20.28-3.14,29.94-4.27l29.27,16.25,2.04,23.27-26.71,19.37Z"/>
    <path id="LEFT_SIDE_2" data-name="LEFT SIDE 2" class="cls-6" d="M57.88,147.32c-.04,.58-.03,1.24,.1,1.94,.39,2.25,1.89,4.99,9.15,9.2,3.66,2.13,9.09,4.8,16.26,6.77,13.64,3.83,20.46,5.74,23.66,6.4,27.63,5.71,42.3,7.68,42.3,7.68,50.44,6.77,80.05,9.12,80.05,9.12,6.2,.49,12.27,.95,18.18,1.37v58.24c-15.74-1.24-41.09-3.42-69.57-6.55,0,0-21.82-2.4-56.01-8.66,0,0-6.72-1.23-26.13-6.21,0,0-20.06-5.14-29.88-12.13-3.97-2.82-7.07-6.21-7.07-6.21-.7-.76-1.35-1.52-1.94-2.27v-58.76"/>
    <g>
      <g id="_Mirror_Repeat_" data-name="&amp;lt;Mirror Repeat&amp;gt;">
        <g class="cls-7">
          <g>
            <path class="cls-5" d="M902.9,206.92c1.34-1.37,2.33-2.7,3.06-3.84,.01-14.7,.02-29.4,.03-44.11-.9,.83-2.12,1.82-3.73,2.79l.63,45.15Z"/>
            <path class="cls-4" d="M905.97,198.67c-.7,.88-1.7,1.97-3.12,3.08"/>
            <path class="cls-4" d="M905.97,193.12c-.84,.84-1.9,1.8-3.24,2.77"/>
            <path class="cls-4" d="M905.98,185.93c-.14,.25-.3,.5-.47,.75-.77,1.09-1.75,2-2.81,2.76"/>
            <path class="cls-4" d="M905.98,173.37c-.78,.77-1.91,1.74-3.49,2.68"/>
            <path class="cls-4" d="M905.98,179.41c-.79,.86-1.88,1.89-3.36,2.92"/>
            <path class="cls-4" d="M905.99,166.75c-.79,.77-1.95,1.74-3.59,2.67"/>
          </g>
          <g>
            <path class="cls-5" d="M822.34,230.68c2.26-.37,4.41-.77,6.45-1.19,.03-15.97,.07-31.93,.1-47.9-2.16,.39-4.4,.76-6.74,1.11l.19,47.98Z"/>
            <path class="cls-4" d="M828.8,223.35l-6.38,.84"/>
            <path class="cls-4" d="M828.81,216.08c-2.15,.29-4.3,.58-6.45,.87"/>
            <path class="cls-4" d="M828.83,208.69c-2.17,.29-4.33,.58-6.5,.87"/>
            <path class="cls-4" d="M828.84,201.59c-2.19,.29-4.39,.58-6.58,.87"/>
            <path class="cls-4" d="M828.86,194.43c-2.21,.3-4.41,.59-6.62,.89"/>
            <path class="cls-4" d="M828.87,187.33c-2.22,.3-4.45,.6-6.67,.9"/>
          </g>
        </g>
      </g>
      <g id="_Mirror_Repeat_-2" data-name="&amp;lt;Mirror Repeat&amp;gt;">
        <g class="cls-10">
          <g>
            <path class="cls-5" d="M63.13,206.92c-1.34-1.37-2.33-2.7-3.06-3.84-.01-14.7-.02-29.4-.03-44.11,.9,.83,2.12,1.82,3.73,2.79l-.63,45.15Z"/>
            <path class="cls-4" d="M60.07,198.67c.7,.88,1.7,1.97,3.11,3.08"/>
            <path class="cls-4" d="M60.06,193.12c.83,.84,1.89,1.78,3.21,2.74"/>
            <path class="cls-4" d="M60.06,185.93c.14,.25,.3,.5,.47,.75,.78,1.11,1.78,2.03,2.86,2.8"/>
            <path class="cls-4" d="M60.05,173.37c.78,.77,1.91,1.74,3.49,2.68"/>
            <path class="cls-4" d="M60.05,179.41c.79,.86,1.88,1.89,3.36,2.92"/>
            <path class="cls-4" d="M60.05,166.75c.79,.77,1.96,1.74,3.6,2.67"/>
          </g>
          <g>
            <path class="cls-5" d="M143.69,230.68c-2.26-.37-4.41-.77-6.45-1.19-.03-15.97-.07-31.93-.1-47.9,2.16,.39,4.4,.76,6.74,1.11l-.19,47.98Z"/>
            <path class="cls-4" d="M137.23,223.35l6.43,.84"/>
            <path class="cls-4" d="M137.22,216.08c2.18,.29,4.36,.59,6.54,.88"/>
            <path class="cls-4" d="M137.2,208.69c2.18,.29,4.37,.59,6.55,.88"/>
            <path class="cls-4" d="M137.19,201.59c2.2,.29,4.4,.58,6.6,.88"/>
            <path class="cls-4" d="M137.18,194.43c2.2,.29,4.4,.59,6.6,.88"/>
            <path class="cls-4" d="M137.16,187.33c2.2,.3,4.4,.6,6.61,.89"/>
          </g>
        </g>
      </g>
    </g>
    <path id="COVER2" class="cls-9" d="M235.98,189.99l13.05,.34c-.26,19.05-.52,38.11-.78,57.16-.65-.02-1.31-.05-1.98-.08-3.07-.15-6.01-.43-8.83-.8l-1.46-56.61Z"/>
    <path id="COVER1" class="cls-9" d="M720.62,187.74c1.36-.02,2.72-.04,4.08-.06-.14,19.29-.27,38.58-.41,57.87-.65,.07-1.34,.13-2.07,.17-.92,.04-1.79,.05-2.59,.02,.33-19.33,.66-38.67,.98-58Z"/>
  </g>
</svg>