<?xml version="1.0" encoding="UTF-8"?>
<svg xmlns="http://www.w3.org/2000/svg" xmlns:xlink="http://www.w3.org/1999/xlink" viewBox="0 0 1319.56 500.17">
  <defs>
    <style>
      .cls-1, .cls-2 {
        fill: none;
      }

      .cls-3 {
        stroke-width: .15px;
      }

      .cls-3, .cls-4, .cls-5 {
        fill: #fff;
      }

      .cls-3, .cls-4, .cls-5, .cls-6, .cls-2 {
        stroke: #231f20;
        stroke-miterlimit: 10;
      }

      .cls-7 {
        clip-path: url(#clippath);
      }

      .cls-8 {
        fill: #010101;
      }

      .cls-9, .cls-6 {
        fill: #c92127;
      }

      .cls-4 {
        stroke-width: .2px;
      }

      .cls-5 {
        stroke-width: .25px;
      }

      .cls-10 {
        clip-path: url(#clippath-1);
      }

      .cls-11 {
        filter: url(#drop-shadow-1);
      }

      .cls-12 {
        fill: transparent;
      }
    </style>
    <filter id="drop-shadow-1" filterUnits="userSpaceOnUse">
      <feOffset dx="8" dy="18"/>
      <feGaussianBlur result="blur" stdDeviation="20"/>
      <feFlood flood-color="#070808" flood-opacity=".75"/>
      <feComposite in2="blur" operator="in"/>
      <feComposite in="SourceGraphic"/>
    </filter>
    <clipPath id="clippath">
      <rect class="cls-1" x="969.73" y="228.64" width="247.73" height="83.14"/>
    </clipPath>
    <clipPath id="clippath-1">
      <rect class="cls-1" x="107.33" y="228.64" width="247.73" height="83.14"/>
    </clipPath>
    <filter id="drop-shadow-2" filterUnits="userSpaceOnUse">
      <feOffset dx="8" dy="18"/>
      <feGaussianBlur result="blur-2" stdDeviation="20"/>
      <feFlood flood-color="#070808" flood-opacity=".75"/>
      <feComposite in2="blur-2" operator="in"/>
      <feComposite in="SourceGraphic"/>
    </filter>
    <filter id="drop-shadow-3" filterUnits="userSpaceOnUse">
      <feOffset dx="8" dy="18"/>
      <feGaussianBlur result="blur-3" stdDeviation="20"/>
      <feFlood flood-color="#070808" flood-opacity=".75"/>
      <feComposite in2="blur-3" operator="in"/>
      <feComposite in="SourceGraphic"/>
    </filter>
    <filter id="drop-shadow-4" filterUnits="userSpaceOnUse">
      <feOffset dx="8" dy="18"/>
      <feGaussianBlur result="blur-4" stdDeviation="20"/>
      <feFlood flood-color="#070808" flood-opacity=".75"/>
      <feComposite in2="blur-4" operator="in"/>
      <feComposite in="SourceGraphic"/>
    </filter>
    <filter id="drop-shadow-5" filterUnits="userSpaceOnUse">
      <feOffset dx="8" dy="18"/>
      <feGaussianBlur result="blur-5" stdDeviation="20"/>
      <feFlood flood-color="#070808" flood-opacity=".75"/>
      <feComposite in2="blur-5" operator="in"/>
      <feComposite in="SourceGraphic"/>
    </filter>
    <filter id="drop-shadow-6" filterUnits="userSpaceOnUse">
      <feOffset dx="8" dy="18"/>
      <feGaussianBlur result="blur-6" stdDeviation="20"/>
      <feFlood flood-color="#070808" flood-opacity=".75"/>
      <feComposite in2="blur-6" operator="in"/>
      <feComposite in="SourceGraphic"/>
    </filter>
  </defs>
  <g id="_2D_BRACELET_UNICOLOR_LARGE_HIDDEN" data-name="2D BRACELET UNICOLOR LARGE" class="cls-11">
    <g id="left_string" data-name="left string">
      <g id="left_end" data-name="left end">
        <g>
          <path class="cls-8" d="M818.36,192.6l-9.47-.72c-50.68-3.84-139.87-14.4-140.77-14.51l.66-1.86c.84,.1,78.82,9.33,130.21,13.66-62.14-16.86-128.59-20.57-129.28-20.61l.08-1.91c.75,.04,74.76,4.16,140.23,23.48l8.34,2.46Z"/>
          <path class="cls-5" d="M672.37,195.22c-4.2-.32-6.57-.55-6.7-.56l.48-1.88c.68,.07,66.75,6.41,132.43-.76-51.52-3.48-130.47-6.14-131.31-6.17l-.1-1.92c.91,.03,91.2,3.08,141.88,6.92l9.47,.72-8.87,1.16c-57.42,7.48-117.53,3.99-137.27,2.49Z"/>
        </g>
        <path class="cls-8" d="M806.52,187.39l-1.11,7.5c-.28,1.89,2.88,3.7,7.02,4.02h0c4.14,.31,7.75-.98,8.03-2.87l1.11-7.5c.28-1.89-2.88-3.7-7.02-4.02h0c-4.14-.31-7.75,.98-8.03,2.87Z"/>
      </g>
      <g id="left_path" data-name="left path">
        <polygon class="cls-5" points="1143.03 228.36 1142.71 228.33 1193.78 210.05 1196.47 209.09 1220.83 210.94 1218.37 211.92 1167.3 230.2 1143.03 228.36"/>
        <polygon class="cls-8" points="817.94 188.26 826.29 181.02 852.06 182.98 816.84 195.76 817.94 188.26"/>
        <polygon class="cls-8" points="1118.23 226.48 1117.91 226.45 1168.98 208.17 1171.67 207.21 1196.03 209.06 1193.57 210.04 1142.5 228.31 1118.23 226.48"/>
        <polygon class="cls-5" points="1093.65 224.61 1093.33 224.59 1144.4 206.31 1147.09 205.35 1171.44 207.19 1168.98 208.17 1117.91 226.45 1093.65 224.61"/>
        <polygon class="cls-8" points="1069.06 222.75 1068.74 222.72 1119.81 204.44 1122.5 203.48 1146.86 205.33 1144.4 206.31 1093.33 224.59 1069.06 222.75"/>
        <polygon class="cls-3" points="1044.48 220.88 1044.16 220.86 1095.23 202.58 1097.91 201.62 1122.27 203.47 1119.81 204.44 1068.74 222.72 1044.48 220.88"/>
        <polygon class="cls-8" points="1019.89 219.02 1019.57 218.99 1070.64 200.72 1073.33 199.76 1097.69 201.6 1095.23 202.58 1044.16 220.86 1019.89 219.02"/>
        <polygon class="cls-3" points="995.31 217.15 994.99 217.13 1046.06 198.85 1048.74 197.89 1073.1 199.74 1070.64 200.72 1019.57 218.99 995.31 217.15"/>
        <polygon class="cls-8" points="970.72 215.29 970.4 215.27 1021.47 196.99 1024.16 196.03 1048.52 197.87 1046.06 198.85 994.99 217.13 970.72 215.29"/>
        <polygon class="cls-3" points="946.14 213.43 945.82 213.4 996.89 195.12 999.57 194.16 1023.93 196.01 1021.47 196.99 970.4 215.27 946.14 213.43"/>
        <polygon class="cls-8" points="921.55 211.56 921.23 211.54 972.3 193.26 974.99 192.3 999.35 194.15 996.89 195.12 945.82 213.4 921.55 211.56"/>
        <polygon class="cls-3" points="896.97 209.7 896.64 209.67 947.72 191.4 950.4 190.43 974.76 192.28 972.3 193.26 921.23 211.54 896.97 209.7"/>
        <polygon class="cls-8" points="872.38 207.83 872.06 207.81 923.14 189.53 925.82 188.57 950.18 190.42 947.72 191.4 896.64 209.67 872.38 207.83"/>
        <polygon class="cls-3" points="847.8 205.97 847.47 205.95 898.55 187.67 901.23 186.71 925.59 188.55 923.14 189.53 872.06 207.81 847.8 205.97"/>
        <polygon class="cls-8" points="823.21 204.11 822.89 204.08 873.96 185.8 876.65 184.84 901.01 186.69 898.55 187.67 847.47 205.95 823.21 204.11"/>
        <path class="cls-3" d="M816.86,195.58l35.2-12.6,24.36,1.85-2.46,.98-51.07,18.28h0c-2.91-4.1-3.12-4.4-6.03-8.51Z"/>
      </g>
    </g>
    <g id="right_string" data-name="right string">
      <g id="right_end" data-name="right end">
        <g>
          <path class="cls-8" d="M489.77,191.88l9.45-.84c50.58-4.49,140.79-8.68,141.69-8.72l-.05,1.92c-.85,.04-79.72,3.71-131.14,7.84,65.85,6.33,131.74-.85,132.42-.92l.53,1.87c-.74,.08-74.13,8.09-144-.1l-8.9-1.04Z"/>
          <path class="cls-5" d="M631.15,165.62c4.19-.37,6.58-.53,6.71-.54l.12,1.91c-.69,.05-67.04,4.6-128.75,22.25,51.28-4.98,129.02-15.2,129.85-15.31l.7,1.85c-.89,.12-89.81,11.81-140.39,16.3l-9.45,.84,8.27-2.57c53.57-16.61,113.21-22.97,132.92-24.72Z"/>
        </g>
        <path class="cls-8" d="M502.96,195.04l-1.29-7.49c-.33-1.89-3.97-3.14-8.1-2.77h0c-4.13,.37-7.24,2.21-6.92,4.1l1.29,7.49c.33,1.89,3.97,3.14,8.1,2.77h0c4.13-.37,7.24-2.21,6.92-4.1Z"/>
      </g>
      <g id="right_path" data-name="right path">
        <polygon class="cls-8" points="491.55 196.05 485.7 204.45 459.98 206.73 490.26 188.56 491.55 196.05"/>
        <polygon class="cls-8" points="187 207.58 187.31 207.55 143.34 233.65 141.02 235.02 116.72 237.18 118.8 235.83 162.78 209.73 187 207.58"/>
        <polygon class="cls-5" points="211.53 205.4 211.85 205.38 167.87 231.47 165.56 232.85 141.25 235 143.34 233.65 187.31 207.55 211.53 205.4"/>
        <polygon class="cls-8" points="236.07 203.23 236.39 203.2 192.41 229.3 190.09 230.67 165.79 232.83 167.87 231.47 211.85 205.38 236.07 203.23"/>
        <polygon class="cls-3" points="260.6 201.05 260.92 201.02 216.94 227.12 214.63 228.49 190.32 230.65 192.41 229.3 236.39 203.2 260.6 201.05"/>
        <polygon class="cls-8" points="285.14 198.88 285.46 198.85 241.48 224.94 239.17 226.32 214.86 228.47 216.94 227.12 260.92 201.02 285.14 198.88"/>
        <polygon class="cls-3" points="309.67 196.7 309.99 196.67 266.01 222.77 263.7 224.14 239.39 226.3 241.48 224.94 285.46 198.85 309.67 196.7"/>
        <polygon class="cls-8" points="334.21 194.52 334.53 194.49 290.55 220.59 288.24 221.96 263.93 224.12 266.01 222.77 309.99 196.67 334.21 194.52"/>
        <polygon class="cls-3" points="358.74 192.35 359.06 192.32 315.08 218.41 312.77 219.79 288.46 221.94 290.55 220.59 334.53 194.49 358.74 192.35"/>
        <polygon class="cls-8" points="383.28 190.17 383.6 190.14 339.62 216.24 337.31 217.61 313 219.77 315.08 218.41 359.06 192.32 383.28 190.17"/>
        <polygon class="cls-3" points="407.81 187.99 408.13 187.97 364.15 214.06 361.84 215.43 337.53 217.59 339.62 216.24 383.6 190.14 407.81 187.99"/>
        <polygon class="cls-8" points="432.35 185.82 432.67 185.79 388.69 211.89 386.38 213.26 362.07 215.41 364.15 214.06 408.13 187.97 432.35 185.82"/>
        <polygon class="cls-3" points="456.88 183.64 457.2 183.61 413.22 209.71 410.91 211.08 386.6 213.24 388.69 211.89 432.67 185.79 456.88 183.64"/>
        <polygon class="cls-8" points="481.42 181.46 481.74 181.44 437.76 207.53 435.45 208.91 411.14 211.06 413.22 209.71 457.2 183.61 481.42 181.46"/>
        <path class="cls-3" d="M490.29,188.74l-30.31,17.99-24.31,2.16,2.09-1.35,43.98-26.1h0c4.13,3.52,4.43,3.78,8.56,7.31Z"/>
      </g>
    </g>
    <path id="RIGHT_SIDE_1" data-name="RIGHT SIDE 1" class="cls-6" d="M1031.33,235.01c14.47,.98,29.75,2.33,45.74,4.17,13.73,1.58,26.79,3.38,39.15,5.32l102.74-4.43c1.81-13.16,3.08-22.85,3.52-26.02,.06-.41,.21-1.5-.26-2.84-.85-2.42-3.11-3.94-4.1-4.57-15.1-9.57-52.21-15.44-52.21-15.44-17.18-2.72-25.77-4.08-28.71-4.49-29.74-4.18-53.75-6.35-73.3-8.1-6.47-.58-15.54-1.34-26.47-2.19l-47.55,14.24c-1.06,9.16-2.12,18.32-3.18,27.48,14.88,5.63,29.75,11.25,44.63,16.88Z"/>
    <path id="RIGHT_SIDE_2" data-name="RIGHT SIDE 2" class="cls-6" d="M1222.6,214.04c-.39,3.37-2.77,6.06-3.01,6.31-1.13,1.23-2.26,1.95-2.74,2.24-6.31,3.87-19.8,8.63-22.75,9.66-7.43,2.27-18.28,5.32-31.63,8.12-13.75,2.89-24.39,4.34-30.38,5.08-70.57,8.77-98.8,10.8-98.8,10.8-5.63,.35-11.06,.69-16.31,1.01v58.99c15.28-1.27,49.07-4.25,79.84-8.13,14.32-1.81,26.61-3.65,30.74-4.28,17.4-2.64,27.79-4.58,31.03-5.2,9.15-1.74,15.2-2.93,21.46-4.5,2.73-.69,5.1-1.35,7.06-1.91,7.17-2.06,13.22-3.82,20.34-7.04,6.46-2.93,9.38-5.06,11.12-6.48,1.98-1.61,3.45-3.13,4.43-4.23v-61.93"/>
    <path id="CENTER_BENDED" data-name="CENTER BENDED" class="cls-6" d="M1017,316.14c-8.02,.44-12.71,.67-12.71,.67-65.15,3.29-114.36,4.53-159.37,5.63-14.44,.35-67.26,1.6-138.18,2.17-43.08,.34-108.62,.82-194.99-.58-27.22-.44-91.53-1.63-173.81-4.91,0,0-10.39-.41-27.95-1.25v-58.24c1.15,.05,2.3,.1,3.44,.15,78.16,3.31,139.14,4.49,160.76,4.88,141.87,2.57,253.1,1.13,298.03,.4,76.88-1.24,136.25-3.52,244.77-7.92"/>
    <path id="line_curved" data-name="line curved" class="cls-12" d="M1006.84,311.22c-65.01,3.15-114.48,4.37-159.8,5.45-14.82,.35-69.03,1.6-141.82,2.17-44.22,.34-111.48,.82-200.13-.58-27.93-.44-93.94-1.63-178.38-4.91,0,0-3.55-.14-10.01-.41v-3.71c6.46,.28,10.01,.41,10.01,.41,84.44,3.28,150.45,4.47,178.38,4.91,88.65,1.39,155.91,.92,200.13,.58,72.79-.56,127-1.81,141.82-2.17,45.31-1.08,94.79-2.29,159.8-5.45v3.71Z"/>
    <text font-size="7em" font-family='Low Gun Screen'>
      <textPath id="MAIN_NAME" fill="white" xlink:href="#line_curved" startOffset="75%" text-anchor="middle">
        NAME
      </textPath>
    </text>
    <path id="LEFT_SIDE_1" data-name="LEFT SIDE 1" class="cls-6" d="M278.6,238.89c-11.36,.96-23.09,2.11-35.15,3.47-11.68,1.32-22.97,2.76-33.85,4.29l-102.23-.76c-1.18-6.15-3.89-21.28-2.87-28.61,.08-.57,.21-1.32,.61-2.24,2.09-4.79,8.45-7.35,14.16-9.62,2.46-.97,4.91-1.71,9.79-3.17,5.43-1.63,11.89-3.35,11.89-3.35h0c10.79-2.89,32.18-7.68,89.5-14.63,14.35-1.74,28.28-3.14,41.74-4.27l40.82,16.25,2.84,23.27-37.24,19.37Z"/>
    <path id="LEFT_SIDE_2" data-name="LEFT SIDE 2" class="cls-6" d="M104.21,217.27c-.05,.58-.03,1.24,.1,1.94,.43,2.25,2.05,4.99,9.93,9.2,3.97,2.13,9.86,4.8,17.64,6.77,14.79,3.83,22.19,5.74,25.67,6.4,29.97,5.71,45.88,7.68,45.88,7.68,54.71,6.77,86.84,9.12,86.84,9.12,6.73,.49,13.31,.95,19.73,1.37v58.24c-17.08-1.24-44.57-3.42-75.46-6.55,0,0-23.67-2.4-60.76-8.66,0,0-7.3-1.23-28.34-6.21,0,0-21.76-5.14-32.42-12.13-4.3-2.82-7.67-6.21-7.67-6.21-.76-.76-1.46-1.52-2.11-2.27v-58.76"/>
    <g>
      <g id="_Mirror_Repeat_" data-name="&amp;lt;Mirror Repeat&amp;gt;">
        <g class="cls-7">
          <g>
            <path class="cls-5" d="M1212.97,276.87c1.86-1.37,3.25-2.7,4.27-3.84,.01-14.7,.03-29.4,.04-44.11-1.26,.83-2.96,1.82-5.2,2.79l.88,45.15Z"/>
            <path class="cls-4" d="M1217.24,268.62c-.97,.88-2.37,1.97-4.35,3.08"/>
            <path class="cls-4" d="M1217.25,263.07c-1.17,.84-2.65,1.8-4.51,2.77"/>
            <path class="cls-4" d="M1217.26,255.88c-.2,.25-.42,.5-.66,.75-1.07,1.09-2.44,2-3.91,2.76"/>
            <path class="cls-4" d="M1217.27,243.32c-1.08,.77-2.66,1.74-4.86,2.68"/>
            <path class="cls-4" d="M1217.26,249.36c-1.1,.86-2.62,1.89-4.68,2.92"/>
            <path class="cls-4" d="M1217.27,236.7c-1.1,.77-2.73,1.74-5,2.67"/>
          </g>
          <g>
            <path class="cls-5" d="M1100.65,300.62c3.15-.37,6.15-.77,8.99-1.19,.05-15.97,.09-31.93,.14-47.9-3,.39-6.14,.76-9.39,1.11l.27,47.98Z"/>
            <path class="cls-4" d="M1109.65,293.3l-8.89,.84"/>
            <path class="cls-4" d="M1109.67,286.02c-3,.29-6,.58-9,.87"/>
            <path class="cls-4" d="M1109.69,278.64c-3.02,.29-6.04,.58-9.06,.87"/>
            <path class="cls-4" d="M1109.71,271.54c-3.06,.29-6.11,.58-9.17,.87"/>
            <path class="cls-4" d="M1109.73,264.38c-3.08,.3-6.15,.59-9.23,.89"/>
            <path class="cls-4" d="M1109.75,257.28c-3.1,.3-6.2,.6-9.3,.9"/>
          </g>
        </g>
      </g>
      <g id="_Mirror_Repeat_-2" data-name="&amp;lt;Mirror Repeat&amp;gt;">
        <g class="cls-10">
          <g>
            <path class="cls-5" d="M111.82,276.87c-1.86-1.37-3.25-2.7-4.27-3.84-.01-14.7-.03-29.4-.04-44.11,1.26,.83,2.96,1.82,5.2,2.79l-.88,45.15Z"/>
            <path class="cls-4" d="M107.54,268.62c.97,.88,2.37,1.97,4.34,3.08"/>
            <path class="cls-4" d="M107.54,263.07c1.16,.84,2.63,1.78,4.47,2.74"/>
            <path class="cls-4" d="M107.53,255.88c.2,.25,.42,.5,.66,.75,1.09,1.11,2.48,2.03,3.98,2.8"/>
            <path class="cls-4" d="M107.52,243.32c1.08,.77,2.66,1.74,4.86,2.68"/>
            <path class="cls-4" d="M107.53,249.36c1.1,.86,2.62,1.89,4.68,2.92"/>
            <path class="cls-4" d="M107.51,236.7c1.1,.77,2.73,1.74,5.01,2.67"/>
          </g>
          <g>
            <path class="cls-5" d="M224.14,300.62c-3.15-.37-6.15-.77-8.99-1.19-.05-15.97-.09-31.93-.14-47.9,3,.39,6.14,.76,9.39,1.11l-.27,47.98Z"/>
            <path class="cls-4" d="M215.14,293.3c2.99,.28,5.98,.56,8.97,.84"/>
            <path class="cls-4" d="M215.11,286.02c3.04,.29,6.08,.59,9.12,.88"/>
            <path class="cls-4" d="M215.09,278.64c3.04,.29,6.09,.59,9.13,.88"/>
            <path class="cls-4" d="M215.07,271.54c3.07,.29,6.13,.58,9.2,.88"/>
            <path class="cls-4" d="M215.05,264.38c3.07,.29,6.13,.59,9.2,.88"/>
            <path class="cls-4" d="M215.03,257.28c3.07,.3,6.14,.6,9.21,.89"/>
          </g>
        </g>
      </g>
    </g>
    <path id="COVER2" class="cls-9" d="M300.94,259.99l10.57,.34c-.21,19.01-.42,38.03-.63,57.04-1.06,0-2.17-.03-3.3-.08-1.91-.09-3.72-.25-5.43-.46-.4-18.95-.8-37.89-1.21-56.84Z"/>
    <path id="COVER1" class="cls-9" d="M1015.07,257.82c1.7-.02,3.39-.04,5.09-.06-.17,19.25-.34,38.5-.51,57.76-.71,.05-1.43,.09-2.16,.13-1.24,.06-2.46,.11-3.65,.14,.41-19.32,.82-38.64,1.23-57.96Z"/>
  </g>
</svg>