<?xml version="1.0" encoding="UTF-8"?>
<svg xmlns="http://www.w3.org/2000/svg" xmlns:xlink="http://www.w3.org/1999/xlink" viewBox="0 0 1098.96 375.11">
  <defs>
    <style>
      .cls-1, .cls-2 {
        fill: none;
      }

      .cls-3 {
        stroke-width: .15px;
      }

      .cls-3, .cls-4, .cls-5 {
        fill: #fff;
      }

      .cls-3, .cls-4, .cls-5, .cls-6, .cls-2 {
        stroke: #231f20;
        stroke-miterlimit: 10;
      }

      .cls-7 {
        clip-path: url(#clippath);
      }

      .cls-8 {
        fill: #010101;
      }

      .cls-9, .cls-6 {
        fill: #c92127;
      }

      .cls-4 {
        stroke-width: .2px;
      }

      .cls-5 {
        stroke-width: .25px;
      }

      .cls-10 {
        clip-path: url(#clippath-1);
      }

      .cls-11 {
        filter: url(#drop-shadow-5);
      }

      .cls-12 {
        fill: transparent;
      }
    </style>
    <filter id="drop-shadow-1" filterUnits="userSpaceOnUse">
      <feOffset dx="8" dy="18"/>
      <feGaussianBlur result="blur" stdDeviation="20"/>
      <feFlood flood-color="#070808" flood-opacity=".75"/>
      <feComposite in2="blur" operator="in"/>
      <feComposite in="SourceGraphic"/>
    </filter>
    <filter id="drop-shadow-2" filterUnits="userSpaceOnUse">
      <feOffset dx="8" dy="18"/>
      <feGaussianBlur result="blur-2" stdDeviation="20"/>
      <feFlood flood-color="#070808" flood-opacity=".75"/>
      <feComposite in2="blur-2" operator="in"/>
      <feComposite in="SourceGraphic"/>
    </filter>
    <filter id="drop-shadow-3" filterUnits="userSpaceOnUse">
      <feOffset dx="8" dy="18"/>
      <feGaussianBlur result="blur-3" stdDeviation="20"/>
      <feFlood flood-color="#070808" flood-opacity=".75"/>
      <feComposite in2="blur-3" operator="in"/>
      <feComposite in="SourceGraphic"/>
    </filter>
    <filter id="drop-shadow-4" filterUnits="userSpaceOnUse">
      <feOffset dx="8" dy="18"/>
      <feGaussianBlur result="blur-4" stdDeviation="20"/>
      <feFlood flood-color="#070808" flood-opacity=".75"/>
      <feComposite in2="blur-4" operator="in"/>
      <feComposite in="SourceGraphic"/>
    </filter>
    <filter id="drop-shadow-5" filterUnits="userSpaceOnUse">
      <feOffset dx="8" dy="18"/>
      <feGaussianBlur result="blur-5" stdDeviation="20"/>
      <feFlood flood-color="#070808" flood-opacity=".75"/>
      <feComposite in2="blur-5" operator="in"/>
      <feComposite in="SourceGraphic"/>
    </filter>
    <clipPath id="clippath">
      <rect class="cls-1" x="880.17" y="164.44" width="177.67" height="83.14"/>
    </clipPath>
    <clipPath id="clippath-1">
      <rect class="cls-1" x="37.45" y="168.04" width="177.67" height="83.14"/>
    </clipPath>
    <filter id="drop-shadow-6" filterUnits="userSpaceOnUse">
      <feOffset dx="8" dy="18"/>
      <feGaussianBlur result="blur-6" stdDeviation="20"/>
      <feFlood flood-color="#070808" flood-opacity=".75"/>
      <feComposite in2="blur-6" operator="in"/>
      <feComposite in="SourceGraphic"/>
    </filter>
  </defs>
  <g id="_2D_BRACELET_MEDIUM" data-name="2D BRACELET MEDIUM" class="cls-11">
    <g id="left_string" data-name="left string">
      <g id="left_end" data-name="left end">
        <g>
          <path class="cls-8" d="M710.7,132.01l-8.19-.72c-43.83-3.84-120.97-14.4-121.74-14.51l.57-1.86c.72,.1,68.17,9.33,112.61,13.66-53.74-16.86-111.21-20.57-111.8-20.61l.07-1.91c.65,.04,64.66,4.16,121.28,23.48l7.21,2.46Z"/>
          <path class="cls-5" d="M584.44,134.63c-3.63-.32-5.69-.55-5.8-.56l.42-1.88c.59,.07,57.73,6.41,114.53-.76-44.55-3.48-112.83-6.14-113.56-6.17l-.09-1.92c.78,.03,78.88,3.08,122.71,6.92l8.19,.72-7.67,1.16c-49.66,7.48-101.64,3.99-118.72,2.49Z"/>
        </g>
        <path class="cls-8" d="M700.46,126.79l-.96,7.5c-.24,1.89,2.49,3.7,6.07,4.02h0c3.58,.31,6.7-.98,6.95-2.87l.96-7.5c.24-1.89-2.49-3.7-6.07-4.02h0c-3.58-.31-6.7,.98-6.95,2.87Z"/>
      </g>
      <g id="left_path" data-name="left path">
        <polygon class="cls-5" points="991.49 167.76 991.21 167.74 1035.38 149.46 1037.7 148.5 1058.77 150.34 1056.64 151.32 1012.47 169.6 991.49 167.76"/>
        <polygon class="cls-8" points="710.34 127.66 717.56 120.43 739.85 122.38 709.38 135.16 710.34 127.66"/>
        <polygon class="cls-8" points="970.04 165.88 969.76 165.85 1013.93 147.58 1016.26 146.62 1037.32 148.46 1035.2 149.44 991.03 167.72 970.04 165.88"/>
        <polygon class="cls-5" points="948.78 164.02 948.5 163.99 992.67 145.71 994.99 144.75 1016.06 146.6 1013.93 147.58 969.76 165.85 948.78 164.02"/>
        <polygon class="cls-8" points="927.52 162.15 927.24 162.13 971.41 143.85 973.73 142.89 994.8 144.73 992.67 145.71 948.5 163.99 927.52 162.15"/>
        <polygon class="cls-3" points="906.25 160.29 905.98 160.26 950.15 141.98 952.47 141.02 973.53 142.87 971.41 143.85 927.24 162.13 906.25 160.29"/>
        <polygon class="cls-8" points="884.99 158.42 884.72 158.4 928.88 140.12 931.21 139.16 952.27 141.01 950.15 141.98 905.98 160.26 884.99 158.42"/>
        <polygon class="cls-3" points="863.73 156.56 863.45 156.53 907.62 138.26 909.95 137.3 931.01 139.14 928.88 140.12 884.72 158.4 863.73 156.56"/>
        <polygon class="cls-8" points="842.47 154.69 842.19 154.67 886.36 136.39 888.68 135.43 909.75 137.28 907.62 138.26 863.45 156.53 842.47 154.69"/>
        <polygon class="cls-3" points="821.21 152.83 820.93 152.81 865.1 134.53 867.42 133.57 888.49 135.41 886.36 136.39 842.19 154.67 821.21 152.83"/>
        <polygon class="cls-8" points="799.94 150.97 799.67 150.94 843.84 132.66 846.16 131.7 867.22 133.55 865.1 134.53 820.93 152.81 799.94 150.97"/>
        <polygon class="cls-3" points="778.68 149.1 778.4 149.08 822.57 130.8 824.9 129.84 845.96 131.69 843.84 132.66 799.67 150.94 778.68 149.1"/>
        <polygon class="cls-8" points="757.42 147.24 757.14 147.21 801.31 128.94 803.64 127.97 824.7 129.82 822.57 130.8 778.4 149.08 757.42 147.24"/>
        <polygon class="cls-3" points="736.16 145.37 735.88 145.35 780.05 127.07 782.37 126.11 803.44 127.96 801.31 128.94 757.14 147.21 736.16 145.37"/>
        <polygon class="cls-8" points="714.89 143.51 714.62 143.49 758.79 125.21 761.11 124.25 782.18 126.09 780.05 127.07 735.88 145.35 714.89 143.51"/>
        <path class="cls-3" d="M709.4,134.98l30.44-12.6,21.06,1.85-2.13,.98-44.17,18.28h0c-2.51-4.1-2.7-4.4-5.21-8.51Z"/>
      </g>
    </g>
    <g id="right_string" data-name="right string">
      <g id="right_end" data-name="right end">
        <g>
          <path class="cls-8" d="M367.52,131.29l8.18-.84c43.74-4.49,121.76-8.68,122.54-8.72l-.05,1.92c-.73,.04-68.95,3.71-113.42,7.84,56.95,6.33,113.94-.85,114.52-.92l.46,1.87c-.64,.08-64.11,8.09-124.54-.1l-7.7-1.04Z"/>
          <path class="cls-5" d="M489.79,105.03c3.63-.37,5.69-.53,5.8-.54l.11,1.91c-.6,.05-57.98,4.6-111.34,22.25,44.35-4.98,111.58-15.2,112.3-15.31l.61,1.85c-.77,.12-77.67,11.81-121.41,16.3l-8.17,.84,7.16-2.57c46.33-16.61,97.91-22.97,114.95-24.72Z"/>
        </g>
        <path class="cls-8" d="M378.93,134.44l-1.12-7.49c-.28-1.89-3.43-3.14-7.01-2.77h0c-3.57,.37-6.26,2.21-5.98,4.1l1.12,7.49c.28,1.89,3.43,3.14,7.01,2.77h0c3.57-.37,6.26-2.21,5.98-4.1Z"/>
      </g>
      <g id="right_path" data-name="right path">
        <polygon class="cls-8" points="369.06 135.45 364.01 143.85 341.76 146.13 367.95 127.96 369.06 135.45"/>
        <polygon class="cls-8" points="105.67 146.99 105.95 146.96 67.91 173.05 65.91 174.43 44.89 176.58 46.69 175.23 84.73 149.13 105.67 146.99"/>
        <polygon class="cls-5" points="126.89 144.81 127.17 144.78 89.13 170.88 87.13 172.25 66.11 174.41 67.91 173.05 105.95 146.96 126.89 144.81"/>
        <polygon class="cls-8" points="148.11 142.63 148.38 142.6 110.35 168.7 108.35 170.07 87.33 172.23 89.13 170.88 127.17 144.78 148.11 142.63"/>
        <polygon class="cls-3" points="169.33 140.46 169.6 140.43 131.57 166.52 129.57 167.9 108.55 170.05 110.35 168.7 148.38 142.6 169.33 140.46"/>
        <polygon class="cls-8" points="190.55 138.28 190.82 138.25 152.79 164.35 150.79 165.72 129.77 167.88 131.57 166.52 169.6 140.43 190.55 138.28"/>
        <polygon class="cls-3" points="211.77 136.1 212.04 136.08 174.01 162.17 172.01 163.54 150.99 165.7 152.79 164.35 190.82 138.25 211.77 136.1"/>
        <polygon class="cls-8" points="232.98 133.93 233.26 133.9 195.23 159.99 193.23 161.37 172.21 163.52 174.01 162.17 212.04 136.08 232.98 133.93"/>
        <polygon class="cls-3" points="254.2 131.75 254.48 131.72 216.45 157.82 214.45 159.19 193.42 161.35 195.23 159.99 233.26 133.9 254.2 131.75"/>
        <polygon class="cls-8" points="275.42 129.57 275.7 129.55 237.67 155.64 235.67 157.01 214.64 159.17 216.45 157.82 254.48 131.72 275.42 129.57"/>
        <polygon class="cls-3" points="296.64 127.4 296.92 127.37 258.89 153.47 256.88 154.84 235.86 156.99 237.67 155.64 275.7 129.55 296.64 127.4"/>
        <polygon class="cls-8" points="317.86 125.22 318.14 125.19 280.1 151.29 278.1 152.66 257.08 154.82 258.89 153.47 296.92 127.37 317.86 125.22"/>
        <polygon class="cls-3" points="339.08 123.05 339.36 123.02 301.32 149.11 299.32 150.49 278.3 152.64 280.1 151.29 318.14 125.19 339.08 123.05"/>
        <polygon class="cls-8" points="360.3 120.87 360.57 120.84 322.54 146.94 320.54 148.31 299.52 150.47 301.32 149.11 339.36 123.02 360.3 120.87"/>
        <path class="cls-3" d="M367.97,128.15l-26.21,17.99-21.02,2.16,1.8-1.35,38.03-26.1h0c3.57,3.52,3.83,3.78,7.4,7.31Z"/>
      </g>
    </g>
    <path id="RIGHT_SIDE_1" data-name="RIGHT SIDE 1" class="cls-6" d="M894.89,174.41c12.51,.98,25.73,2.33,39.56,4.17,11.87,1.58,23.17,3.38,33.86,5.32l88.85-4.43c1.57-13.16,2.67-22.85,3.05-26.02,.05-.41,.18-1.5-.22-2.84-.73-2.42-2.69-3.94-3.55-4.57-13.06-9.57-45.15-15.44-45.15-15.44-14.86-2.72-22.29-4.08-24.83-4.49-25.72-4.18-46.48-6.35-63.39-8.1-5.6-.58-13.44-1.34-22.89-2.19l-41.12,14.24c-.92,9.16-1.83,18.32-2.75,27.48,12.87,5.63,25.73,11.25,38.6,16.88Z"/>
    <path id="RIGHT_SIDE_2" data-name="RIGHT SIDE 2" class="cls-6" d="M1060.26,153.44c-.38,3.37-2.71,6.06-2.93,6.31-1.1,1.23-2.21,1.95-2.67,2.24-6.16,3.87-19.32,8.63-22.2,9.66-7.25,2.27-17.84,5.32-30.86,8.12-13.42,2.89-23.8,4.34-29.65,5.08-68.87,8.77-96.41,10.8-96.41,10.8-5.49,.35-10.79,.69-15.92,1.01v58.99c14.91-1.27,47.88-4.25,77.91-8.13,13.97-1.81,25.97-3.65,29.99-4.28,16.98-2.64,27.12-4.58,30.28-5.2,8.93-1.74,14.83-2.93,20.94-4.5,2.66-.69,4.97-1.35,6.89-1.91,6.99-2.06,12.9-3.82,19.85-7.04,6.31-2.93,9.16-5.06,10.85-6.48,1.93-1.61,3.37-3.13,4.33-4.23v-61.93"/>
    <path id="CENTER_BENDED" data-name="CENTER BENDED" class="cls-6" d="M859.12,255.55c-7.1,.44-11.25,.67-11.25,.67-57.68,3.29-101.24,4.53-141.07,5.63-12.78,.35-59.54,1.6-122.32,2.17-38.14,.34-96.15,.82-172.61-.58-24.09-.44-81.03-1.63-153.86-4.91,0,0-9.2-.41-24.74-1.25v-58.24c1.02,.05,2.03,.1,3.04,.15,69.19,3.31,123.17,4.49,142.31,4.88,125.58,2.57,224.05,1.13,263.82,.4,68.06-1.24,120.62-3.52,216.68-7.92"/>
    <path id="line_curved" data-name="line curved" class="cls-12" d="M846.8,251.05c-56.62,3.15-99.71,4.37-139.18,5.45-12.9,.35-60.13,1.6-123.52,2.17-38.51,.34-97.1,.82-174.31-.58-24.33-.44-81.82-1.63-155.37-4.91,0,0-3.09-.14-8.72-.41v-3.71c5.63,.28,8.72,.41,8.72,.41,73.55,3.28,131.04,4.47,155.37,4.91,77.21,1.39,135.8,.92,174.31,.58,63.4-.56,110.62-1.81,123.52-2.17,39.47-1.08,82.56-2.29,139.18-5.45v3.71Z"/>
    <text font-size="7em" font-family='Low Gun Screen'>
      <textPath id="MAIN_NAME" fill="white" xlink:href="#line_curved" startOffset="75%" text-anchor="middle">
        NAME
      </textPath>
    </text>
    <path id="LEFT_SIDE_1" data-name="LEFT SIDE 1" class="cls-6" d="M184.89,178.29c-9.82,.96-19.97,2.11-30.4,3.47-10.1,1.32-19.86,2.76-29.28,4.29l-88.42-.76c-1.02-6.15-3.37-21.28-2.48-28.61,.07-.57,.18-1.32,.53-2.24,1.81-4.79,7.31-7.35,12.25-9.62,2.13-.97,4.24-1.71,8.47-3.17,4.7-1.63,10.28-3.35,10.28-3.35h0c9.34-2.89,27.83-7.68,77.4-14.63,12.41-1.74,24.45-3.14,36.1-4.27l35.3,16.25,2.46,23.27-32.21,19.37Z"/>
    <path id="LEFT_SIDE_2" data-name="LEFT SIDE 2" class="cls-6" d="M34.17,156.68c-.04,.58-.03,1.24,.1,1.94,.41,2.25,1.99,4.99,9.61,9.2,3.84,2.13,9.53,4.8,17.06,6.77,14.31,3.83,21.47,5.74,24.83,6.4,29,5.71,44.39,7.68,44.39,7.68,52.93,6.77,84.02,9.12,84.02,9.12,6.51,.49,12.88,.95,19.08,1.37v58.24c-16.52-1.24-43.12-3.42-73.01-6.55,0,0-22.9-2.4-58.78-8.66,0,0-7.06-1.23-27.42-6.21,0,0-21.05-5.14-31.36-12.13-4.16-2.82-7.42-6.21-7.42-6.21-.74-.76-1.41-1.52-2.04-2.27v-58.76"/>
    <g>
      <g id="_Mirror_Repeat_" data-name="&amp;lt;Mirror Repeat&amp;gt;">
        <g class="cls-7">
          <g>
            <path class="cls-5" d="M1057.68,208.83c-.73,1.14-1.72,2.47-3.06,3.84-1.64,1.69-3.32,2.93-4.7,3.82-.03-15.64-.05-31.28-.08-46.92,1.22-.48,2.65-1.15,4.15-2.05,1.6-.97,2.82-1.96,3.73-2.79-.01,14.7-.02,29.4-.03,44.11Z"/>
            <path class="cls-4" d="M1057.69,204.42c-.74,.93-1.82,2.09-3.37,3.28-1.58,1.2-3.15,2.05-4.41,2.63"/>
            <path class="cls-4" d="M1057.69,198.87c-.87,.88-1.99,1.87-3.4,2.89-1.55,1.11-3.07,1.96-4.39,2.61"/>
            <path class="cls-4" d="M1057.7,191.68c-.14,.25-.3,.5-.47,.75-1.84,2.62-4.89,4.18-7.33,5.1"/>
            <path class="cls-4" d="M1057.7,179.12c-.78,.77-1.91,1.74-3.49,2.68-1.61,.96-3.15,1.58-4.35,1.98"/>
            <path class="cls-4" d="M1057.7,185.16c-.79,.86-1.88,1.89-3.36,2.92-1.61,1.13-3.19,1.92-4.47,2.47"/>
            <path class="cls-4" d="M1057.71,172.5c-.84,.81-2.1,1.86-3.9,2.84-1.45,.79-2.84,1.32-3.96,1.67"/>
          </g>
          <g>
            <path class="cls-5" d="M1043.57,219.11c-1.83,.82-3.86,1.65-6.08,2.46-2.64,.96-5.16,1.74-7.48,2.38,0-15.83,0-31.66,.01-47.49,2.59-.69,5.31-1.49,8.14-2.42,1.93-.64,3.77-1.29,5.51-1.94-.03,15.67-.06,31.34-.1,47.02Z"/>
            <path class="cls-4" d="M1043.61,214.31c-4.52,1.28-9.04,2.57-13.57,3.85"/>
            <path class="cls-4" d="M1043.61,207.1c-4.52,1.26-9.04,2.51-13.57,3.77"/>
            <path class="cls-4" d="M1043.61,199.71c-4.56,1.24-9.13,2.48-13.69,3.72"/>
            <path class="cls-4" d="M1043.61,192.58c-4.52,1.17-9.04,2.33-13.57,3.5"/>
            <path class="cls-4" d="M1043.61,185.44c-4.56,1.23-9.13,2.46-13.69,3.69"/>
            <path class="cls-4" d="M1043.61,178.36c-4.5,1.24-9,2.49-13.51,3.73"/>
          </g>
          <g>
            <path class="cls-5" d="M1022.68,226.28c-1.88,.61-3.9,1.21-6.08,1.78-2.63,.69-5.14,1.26-7.49,1.71,0-15.86,.01-31.72,.02-47.58,2.35-.48,4.83-1.07,7.43-1.76,2.21-.59,4.28-1.22,6.21-1.84-.03,15.9-.07,31.8-.1,47.69Z"/>
            <path class="cls-4" d="M1022.73,220.8c-4.53,1.04-9.05,2.08-13.58,3.12"/>
            <path class="cls-4" d="M1022.73,213.59c-4.53,.97-9.05,1.93-13.58,2.9"/>
            <path class="cls-4" d="M1022.73,206.2c-4.54,.89-9.08,1.78-13.61,2.67"/>
            <path class="cls-4" d="M1022.73,199.07c-4.53,.96-9.07,1.92-13.6,2.89"/>
            <path class="cls-4" d="M1022.73,191.93c-4.53,.92-9.07,1.85-13.6,2.77"/>
            <path class="cls-4" d="M1022.73,184.85c-4.53,.92-9.07,1.83-13.6,2.75"/>
          </g>
          <g>
            <path class="cls-5" d="M1001.9,231.56c-2.04,.42-4.19,.82-6.45,1.19-2.47,.4-4.85,.73-7.12,1,0-15.82,.01-31.64,.02-47.46,2.35-.4,4.76-.83,7.23-1.31,2.2-.43,4.34-.87,6.42-1.32-.03,15.97-.07,31.93-.1,47.9Z"/>
            <path class="cls-4" d="M1001.92,225.4c-4.53,.86-9.05,1.73-13.58,2.59"/>
            <path class="cls-4" d="M1001.93,218.19c-4.53,.82-9.06,1.65-13.59,2.47"/>
            <path class="cls-4" d="M1001.95,210.8c-4.53,.78-9.07,1.57-13.6,2.35"/>
            <path class="cls-4" d="M1001.96,203.65c-4.54,.73-9.07,1.46-13.61,2.2"/>
            <path class="cls-4" d="M1001.98,196.54c-4.54,.73-9.08,1.46-13.62,2.18"/>
            <path class="cls-4" d="M1001.99,189.44c-4.54,.75-9.09,1.5-13.63,2.26"/>
          </g>
          <g>
            <path class="cls-5" d="M980.51,235.24c-2.04,.42-4.19,.82-6.45,1.19-2.47,.4-4.85,.73-7.12,1l.02-48.06c2.23-.26,4.53-.57,6.91-.92,2.33-.35,4.58-.72,6.74-1.11-.03,15.97-.07,31.93-.1,47.9Z"/>
            <path class="cls-4" d="M980.52,229.1c-4.53,.59-9.05,1.19-13.58,1.78"/>
            <path class="cls-4" d="M980.53,221.82c-4.53,.61-9.06,1.22-13.59,1.84"/>
            <path class="cls-4" d="M980.55,214.44c-4.53,.61-9.07,1.22-13.6,1.83"/>
            <path class="cls-4" d="M980.56,207.34c-4.54,.6-9.08,1.21-13.62,1.81"/>
            <path class="cls-4" d="M980.58,200.18c-4.54,.61-9.09,1.22-13.63,1.82"/>
            <path class="cls-4" d="M980.59,193.08c-4.55,.62-9.1,1.23-13.65,1.85"/>
          </g>
          <g>
            <path class="cls-5" d="M959.26,238.7c-2.1,.41-4.36,.8-6.76,1.15-2.38,.34-4.66,.61-6.81,.81,0-16.11,.01-32.22,.02-48.33,4.55-.59,9.1-1.18,13.64-1.76-.03,16.04-.07,32.09-.1,48.13Z"/>
            <line class="cls-4" x1="959.3" y1="232.79" x2="945.69" y2="234.11"/>
            <line class="cls-4" x1="959.3" y1="225.57" x2="945.69" y2="226.89"/>
            <line class="cls-4" x1="959.3" y1="218.18" x2="945.69" y2="219.5"/>
            <line class="cls-4" x1="959.3" y1="211.06" x2="945.69" y2="212.38"/>
            <line class="cls-4" x1="959.3" y1="203.92" x2="945.69" y2="205.24"/>
            <line class="cls-4" x1="959.3" y1="196.84" x2="945.69" y2="198.16"/>
          </g>
          <g>
            <path class="cls-5" d="M937.54,241.98c-2.07,.39-4.39,.74-6.93,1.01-2.39,.25-4.61,.39-6.64,.45,0-16.18,.02-32.35,.02-48.53,4.55-.52,9.09-1.04,13.64-1.56-.03,16.21-.07,32.42-.1,48.63Z"/>
            <line class="cls-4" x1="937.58" y1="235.56" x2="923.97" y2="236.88"/>
            <line class="cls-4" x1="937.58" y1="228.34" x2="923.97" y2="229.66"/>
            <line class="cls-4" x1="937.58" y1="220.95" x2="923.98" y2="222.27"/>
            <line class="cls-4" x1="937.58" y1="213.83" x2="923.97" y2="215.15"/>
            <line class="cls-4" x1="937.58" y1="206.69" x2="923.98" y2="208.01"/>
            <line class="cls-4" x1="937.58" y1="199.61" x2="923.97" y2="200.93"/>
          </g>
          <g>
            <path class="cls-5" d="M915.84,244.28c-2.07,.39-4.39,.74-6.93,1.01-2.39,.25-4.61,.39-6.64,.45,0-16.18,.02-32.35,.02-48.53,4.53-.44,9.06-.87,13.59-1.31-.02,16.13-.04,32.26-.05,48.39Z"/>
            <line class="cls-4" x1="915.88" y1="237.86" x2="902.27" y2="239.18"/>
            <line class="cls-4" x1="915.88" y1="230.64" x2="902.27" y2="231.96"/>
            <line class="cls-4" x1="915.89" y1="223.25" x2="902.28" y2="224.57"/>
            <line class="cls-4" x1="915.88" y1="216.13" x2="902.27" y2="217.45"/>
            <line class="cls-4" x1="915.89" y1="208.99" x2="902.28" y2="210.31"/>
            <line class="cls-4" x1="915.88" y1="201.91" x2="902.27" y2="203.23"/>
          </g>
          <g>
            <path class="cls-5" d="M893.85,246c-2.07,.39-4.39,.74-6.93,1.01-2.39,.25-4.61,.39-6.64,.45,0-16.18,.02-32.35,.02-48.53,4.53-.44,9.06-.87,13.59-1.31-.02,16.13-.04,32.26-.05,48.39Z"/>
            <line class="cls-4" x1="893.9" y1="239.58" x2="880.29" y2="240.9"/>
            <line class="cls-4" x1="893.9" y1="232.36" x2="880.29" y2="233.68"/>
            <line class="cls-4" x1="893.9" y1="224.97" x2="880.29" y2="226.29"/>
            <line class="cls-4" x1="893.9" y1="217.85" x2="880.29" y2="219.17"/>
            <line class="cls-4" x1="893.9" y1="210.71" x2="880.29" y2="212.03"/>
            <line class="cls-4" x1="893.9" y1="203.63" x2="880.29" y2="204.95"/>
          </g>
        </g>
      </g>
      <g id="_Mirror_Repeat_-2" data-name="&amp;lt;Mirror Repeat&amp;gt;">
        <g class="cls-10">
          <g>
            <path class="cls-5" d="M37.6,212.43c.73,1.14,1.72,2.47,3.06,3.84,1.64,1.69,3.32,2.93,4.7,3.82,.03-15.64,.05-31.28,.08-46.92-1.22-.48-2.65-1.15-4.15-2.05-1.6-.97-2.82-1.96-3.73-2.79,.01,14.7,.02,29.4,.03,44.11Z"/>
            <path class="cls-4" d="M37.6,208.02c.74,.93,1.82,2.09,3.37,3.28,1.58,1.2,3.15,2.05,4.41,2.63"/>
            <path class="cls-4" d="M37.6,202.48c.87,.88,1.99,1.87,3.4,2.89,1.55,1.11,3.07,1.96,4.39,2.61"/>
            <path class="cls-4" d="M37.59,195.28c.14,.25,.3,.5,.47,.75,1.84,2.62,4.89,4.18,7.33,5.1"/>
            <path class="cls-4" d="M37.58,182.72c.78,.77,1.91,1.74,3.49,2.68,1.61,.96,3.15,1.58,4.35,1.98"/>
            <path class="cls-4" d="M37.59,188.77c.79,.86,1.88,1.89,3.36,2.92,1.61,1.13,3.19,1.92,4.47,2.47"/>
            <path class="cls-4" d="M37.58,176.1c.84,.81,2.1,1.86,3.9,2.84,1.45,.79,2.84,1.32,3.96,1.67"/>
          </g>
          <g>
            <path class="cls-5" d="M51.72,222.72c1.83,.82,3.86,1.65,6.08,2.46,2.64,.96,5.16,1.74,7.48,2.38,0-15.83,0-31.66-.01-47.49-2.59-.69-5.31-1.49-8.14-2.42-1.93-.64-3.77-1.29-5.51-1.94,.03,15.67,.06,31.34,.1,47.02Z"/>
            <path class="cls-4" d="M51.68,217.91c4.52,1.28,9.04,2.57,13.57,3.85"/>
            <path class="cls-4" d="M51.68,210.7c4.52,1.26,9.04,2.51,13.57,3.77"/>
            <path class="cls-4" d="M51.67,203.31c4.56,1.24,9.13,2.48,13.69,3.72"/>
            <path class="cls-4" d="M51.68,196.19c4.52,1.17,9.04,2.33,13.57,3.5"/>
            <path class="cls-4" d="M51.67,189.04c4.56,1.23,9.13,2.46,13.69,3.69"/>
            <path class="cls-4" d="M51.68,181.97c4.5,1.24,9,2.49,13.51,3.73"/>
          </g>
          <g>
            <path class="cls-5" d="M72.61,229.88c1.88,.61,3.9,1.21,6.08,1.78,2.63,.69,5.14,1.26,7.49,1.71,0-15.86-.01-31.72-.02-47.58-2.35-.48-4.83-1.07-7.43-1.76-2.21-.59-4.28-1.22-6.21-1.84,.03,15.9,.07,31.8,.1,47.69Z"/>
            <path class="cls-4" d="M72.56,224.41c4.53,1.04,9.05,2.08,13.58,3.12"/>
            <path class="cls-4" d="M72.56,217.19c4.53,.97,9.05,1.93,13.58,2.9"/>
            <path class="cls-4" d="M72.56,209.8c4.54,.89,9.08,1.78,13.61,2.67"/>
            <path class="cls-4" d="M72.56,202.68c4.53,.96,9.07,1.92,13.6,2.89"/>
            <path class="cls-4" d="M72.56,195.53c4.53,.92,9.07,1.85,13.6,2.77"/>
            <path class="cls-4" d="M72.56,188.46c4.53,.92,9.07,1.83,13.6,2.75"/>
          </g>
          <g>
            <path class="cls-5" d="M93.38,235.16c2.04,.42,4.19,.82,6.45,1.19,2.47,.4,4.85,.73,7.12,1,0-15.82-.01-31.64-.02-47.46-2.35-.4-4.76-.83-7.23-1.31-2.2-.43-4.34-.87-6.42-1.32,.03,15.97,.07,31.93,.1,47.9Z"/>
            <path class="cls-4" d="M93.37,229.01c4.53,.86,9.05,1.73,13.58,2.59"/>
            <path class="cls-4" d="M93.36,221.79c4.53,.82,9.06,1.65,13.59,2.47"/>
            <path class="cls-4" d="M93.34,214.41c4.53,.78,9.07,1.57,13.6,2.35"/>
            <path class="cls-4" d="M93.33,207.25c4.54,.73,9.07,1.46,13.61,2.2"/>
            <path class="cls-4" d="M93.31,200.15c4.54,.73,9.08,1.46,13.62,2.18"/>
            <path class="cls-4" d="M93.3,193.05c4.54,.75,9.09,1.5,13.63,2.26"/>
          </g>
          <g>
            <path class="cls-5" d="M114.78,238.84c2.04,.42,4.19,.82,6.45,1.19,2.47,.4,4.85,.73,7.12,1l-.02-48.06c-2.23-.26-4.53-.57-6.91-.92-2.33-.35-4.58-.72-6.74-1.11,.03,15.97,.07,31.93,.1,47.9Z"/>
            <path class="cls-4" d="M114.77,232.7c4.53,.59,9.05,1.19,13.58,1.78"/>
            <path class="cls-4" d="M114.75,225.43c4.53,.61,9.06,1.22,13.59,1.84"/>
            <path class="cls-4" d="M114.74,218.04c4.53,.61,9.07,1.22,13.6,1.83"/>
            <path class="cls-4" d="M114.72,210.94c4.54,.6,9.08,1.21,13.62,1.81"/>
            <path class="cls-4" d="M114.71,203.79c4.54,.61,9.09,1.22,13.63,1.82"/>
            <path class="cls-4" d="M114.7,196.68c4.55,.62,9.1,1.23,13.65,1.85"/>
          </g>
          <g>
            <path class="cls-5" d="M136.03,242.31c2.1,.41,4.36,.8,6.76,1.15,2.38,.34,4.66,.61,6.81,.81,0-16.11-.01-32.22-.02-48.33-4.55-.59-9.1-1.18-13.64-1.76,.03,16.04,.07,32.09,.1,48.13Z"/>
            <line class="cls-4" x1="135.99" y1="236.39" x2="149.6" y2="237.71"/>
            <line class="cls-4" x1="135.99" y1="229.18" x2="149.6" y2="230.5"/>
            <line class="cls-4" x1="135.98" y1="221.79" x2="149.59" y2="223.11"/>
            <line class="cls-4" x1="135.99" y1="214.67" x2="149.6" y2="215.99"/>
            <line class="cls-4" x1="135.98" y1="207.52" x2="149.59" y2="208.84"/>
            <line class="cls-4" x1="135.99" y1="200.45" x2="149.6" y2="201.77"/>
          </g>
          <g>
            <path class="cls-5" d="M157.75,245.58c2.07,.39,4.39,.74,6.93,1.01,2.39,.25,4.61,.39,6.64,.45,0-16.18-.02-32.35-.02-48.53-4.55-.52-9.09-1.04-13.64-1.56,.03,16.21,.07,32.42,.1,48.63Z"/>
            <line class="cls-4" x1="157.71" y1="239.16" x2="171.32" y2="240.48"/>
            <line class="cls-4" x1="157.71" y1="231.95" x2="171.32" y2="233.27"/>
            <line class="cls-4" x1="157.7" y1="224.56" x2="171.31" y2="225.88"/>
            <line class="cls-4" x1="157.71" y1="217.44" x2="171.32" y2="218.76"/>
            <line class="cls-4" x1="157.7" y1="210.29" x2="171.31" y2="211.61"/>
            <line class="cls-4" x1="157.71" y1="203.22" x2="171.32" y2="204.54"/>
          </g>
          <g>
            <path class="cls-5" d="M179.45,247.88c2.07,.39,4.39,.74,6.93,1.01,2.39,.25,4.61,.39,6.64,.45,0-16.18-.02-32.35-.02-48.53-4.53-.44-9.06-.87-13.59-1.31,.02,16.13,.04,32.26,.05,48.39Z"/>
            <line class="cls-4" x1="179.4" y1="241.46" x2="193.01" y2="242.78"/>
            <line class="cls-4" x1="179.4" y1="234.25" x2="193.01" y2="235.57"/>
            <line class="cls-4" x1="179.4" y1="226.86" x2="193.01" y2="228.18"/>
            <line class="cls-4" x1="179.4" y1="219.74" x2="193.01" y2="221.06"/>
            <line class="cls-4" x1="179.4" y1="212.59" x2="193.01" y2="213.91"/>
            <line class="cls-4" x1="179.4" y1="205.52" x2="193.01" y2="206.84"/>
          </g>
          <g>
            <path class="cls-5" d="M201.43,249.6c2.07,.39,4.39,.74,6.93,1.01,2.39,.25,4.61,.39,6.64,.45,0-16.18-.02-32.35-.02-48.53-4.53-.44-9.06-.87-13.59-1.31,.02,16.13,.04,32.26,.05,48.39Z"/>
            <line class="cls-4" x1="201.39" y1="243.18" x2="215" y2="244.5"/>
            <line class="cls-4" x1="201.39" y1="235.97" x2="215" y2="237.29"/>
            <line class="cls-4" x1="201.39" y1="228.58" x2="215" y2="229.9"/>
            <line class="cls-4" x1="201.39" y1="221.45" x2="215" y2="222.78"/>
            <line class="cls-4" x1="201.39" y1="214.31" x2="215" y2="215.63"/>
            <line class="cls-4" x1="201.39" y1="207.23" x2="215" y2="208.56"/>
          </g>
        </g>
      </g>
    </g>
    <path id="COVER1" class="cls-9" d="M857.59,197.24c1.34-.02,2.69-.04,4.03-.06-.13,19.28-.27,38.56-.4,57.85-1.53,.04-3.07,.08-4.6,.12,.32-19.3,.65-38.61,.97-57.91Z"/>
    <path id="COVER2" class="cls-9" d="M223.82,199.34l10.97,.34c-.22,19.05-.44,38.11-.66,57.16-.87,0-1.77,0-2.71-.06-2.75-.15-5.23-.56-7.39-1.07-.07-18.79-.14-37.58-.2-56.37Z"/>
  </g>
</svg>