<?xml version="1.0" encoding="UTF-8"?>
<svg xmlns="http://www.w3.org/2000/svg" xmlns:xlink="http://www.w3.org/1999/xlink" viewBox="0 0 959.44 350.34">
  <defs>
    <style>
      .cls-1, .cls-2 {
        fill: none;
      }

      .cls-3 {
        stroke-width: .15px;
      }

      .cls-3, .cls-4, .cls-5 {
        fill: #fff;
      }

      .cls-3, .cls-4, .cls-5, .cls-6, .cls-7, .cls-2 {
        stroke: #231f20;
        stroke-miterlimit: 10;
      }

      .cls-8 {
        clip-path: url(#clippath);
      }

      .cls-9 {
        fill: #010101;
      }

      .cls-10, .cls-7 {
        fill: #c92127;
      }

      .cls-11, .cls-6 {
        fill: #c92128;
      }

      .cls-4 {
        stroke-width: .2px;
      }

      .cls-5 {
        stroke-width: .25px;
      }

      .cls-12 {
        clip-path: url(#clippath-1);
      }

      .cls-13 {
        filter: url(#drop-shadow-6);
      }

      .cls-14 {
        fill: transparent;
      }
    </style>
    <filter id="drop-shadow-1" filterUnits="userSpaceOnUse">
      <feOffset dx="8" dy="18"/>
      <feGaussianBlur result="blur" stdDeviation="20"/>
      <feFlood flood-color="#070808" flood-opacity=".75"/>
      <feComposite in2="blur" operator="in"/>
      <feComposite in="SourceGraphic"/>
    </filter>
    <filter id="drop-shadow-2" filterUnits="userSpaceOnUse">
      <feOffset dx="8" dy="18"/>
      <feGaussianBlur result="blur-2" stdDeviation="20"/>
      <feFlood flood-color="#070808" flood-opacity=".75"/>
      <feComposite in2="blur-2" operator="in"/>
      <feComposite in="SourceGraphic"/>
    </filter>
    <filter id="drop-shadow-3" filterUnits="userSpaceOnUse">
      <feOffset dx="8" dy="18"/>
      <feGaussianBlur result="blur-3" stdDeviation="20"/>
      <feFlood flood-color="#070808" flood-opacity=".75"/>
      <feComposite in2="blur-3" operator="in"/>
      <feComposite in="SourceGraphic"/>
    </filter>
    <filter id="drop-shadow-4" filterUnits="userSpaceOnUse">
      <feOffset dx="8" dy="18"/>
      <feGaussianBlur result="blur-4" stdDeviation="20"/>
      <feFlood flood-color="#070808" flood-opacity=".75"/>
      <feComposite in2="blur-4" operator="in"/>
      <feComposite in="SourceGraphic"/>
    </filter>
    <filter id="drop-shadow-5" filterUnits="userSpaceOnUse">
      <feOffset dx="8" dy="18"/>
      <feGaussianBlur result="blur-5" stdDeviation="20"/>
      <feFlood flood-color="#070808" flood-opacity=".75"/>
      <feComposite in2="blur-5" operator="in"/>
      <feComposite in="SourceGraphic"/>
    </filter>
    <filter id="drop-shadow-6" filterUnits="userSpaceOnUse">
      <feOffset dx="8" dy="18"/>
      <feGaussianBlur result="blur-6" stdDeviation="20"/>
      <feFlood flood-color="#070808" flood-opacity=".75"/>
      <feComposite in2="blur-6" operator="in"/>
      <feComposite in="SourceGraphic"/>
    </filter>
    <clipPath id="clippath">
      <rect class="cls-1" x="729.14" y="162.73" width="177.67" height="83.14"/>
    </clipPath>
    <clipPath id="clippath-1">
      <rect class="cls-1" x="60.61" y="162.73" width="177.67" height="83.14"/>
    </clipPath>
  </defs>
  <g id="_2D_BRACELET_SMALL_HIDDEN" data-name="2D BRACELET" class="cls-13">
    <g id="left_string" data-name="left string">
      <g id="left_end" data-name="left end">
        <g>
          <path class="cls-9" d="M620.58,126.69l-6.79-.72c-36.35-3.84-100.32-14.4-100.96-14.51l.47-1.86c.6,.1,56.53,9.33,93.39,13.66-44.57-16.86-92.23-20.57-92.72-20.61l.06-1.91c.54,.04,53.62,4.16,100.57,23.48l5.98,2.46Z"/>
          <path class="cls-5" d="M515.87,129.31c-3.01-.32-4.72-.55-4.81-.56l.35-1.88c.49,.07,47.88,6.41,94.98-.76-36.95-3.48-93.57-6.14-94.18-6.17l-.07-1.92c.65,.03,65.41,3.08,101.76,6.92l6.79,.72-6.36,1.16c-41.18,7.48-84.29,3.99-98.45,2.49Z"/>
        </g>
        <path class="cls-9" d="M612.08,121.48l-.79,7.5c-.2,1.89,2.06,3.7,5.03,4.02h0c2.97,.31,5.56-.98,5.76-2.87l.79-7.5c.2-1.89-2.06-3.7-5.03-4.02h0c-2.97-.31-5.56,.98-5.76,2.87Z"/>
      </g>
      <g id="left_path" data-name="left path">
        <polygon class="cls-5" points="853.44 162.45 853.21 162.42 889.84 144.14 891.77 143.18 909.23 145.03 907.47 146.01 870.84 164.29 853.44 162.45"/>
        <polygon class="cls-9" points="620.28 122.35 626.26 115.11 644.75 117.07 619.48 129.85 620.28 122.35"/>
        <polygon class="cls-9" points="835.65 160.56 835.42 160.54 872.05 142.26 873.98 141.3 891.45 143.15 889.69 144.13 853.05 162.4 835.65 160.56"/>
        <polygon class="cls-5" points="818.02 158.7 817.79 158.68 854.42 140.4 856.35 139.44 873.82 141.28 872.05 142.26 835.42 160.54 818.02 158.7"/>
        <polygon class="cls-9" points="800.39 156.84 800.16 156.81 836.79 138.53 838.71 137.57 856.18 139.42 854.42 140.4 817.79 158.68 800.39 156.84"/>
        <polygon class="cls-3" points="782.75 154.97 782.52 154.95 819.15 136.67 821.08 135.71 838.55 137.56 836.79 138.53 800.16 156.81 782.75 154.97"/>
        <polygon class="cls-9" points="765.12 153.11 764.89 153.08 801.52 134.81 803.45 133.85 820.92 135.69 819.15 136.67 782.52 154.95 765.12 153.11"/>
        <polygon class="cls-3" points="747.49 151.24 747.26 151.22 783.89 132.94 785.81 131.98 803.28 133.83 801.52 134.81 764.89 153.08 747.49 151.24"/>
        <polygon class="cls-9" points="729.85 149.38 729.62 149.36 766.25 131.08 768.18 130.12 785.65 131.96 783.89 132.94 747.26 151.22 729.85 149.38"/>
        <polygon class="cls-3" points="712.22 147.52 711.99 147.49 748.62 129.21 750.55 128.25 768.02 130.1 766.25 131.08 729.62 149.36 712.22 147.52"/>
        <polygon class="cls-9" points="694.59 145.65 694.36 145.63 730.99 127.35 732.92 126.39 750.38 128.24 748.62 129.21 711.99 147.49 694.59 145.65"/>
        <polygon class="cls-3" points="676.96 143.79 676.73 143.76 713.36 125.49 715.28 124.52 732.75 126.37 730.99 127.35 694.36 145.63 676.96 143.79"/>
        <polygon class="cls-9" points="659.32 141.92 659.09 141.9 695.73 123.62 697.65 122.66 715.12 124.51 713.36 125.49 676.73 143.76 659.32 141.92"/>
        <polygon class="cls-3" points="641.69 140.06 641.46 140.04 678.09 121.76 680.02 120.8 697.49 122.64 695.73 123.62 659.09 141.9 641.69 140.06"/>
        <polygon class="cls-9" points="624.06 138.2 623.83 138.17 660.46 119.89 662.38 118.93 679.85 120.78 678.09 121.76 641.46 140.04 624.06 138.2"/>
        <path class="cls-3" d="M619.5,129.67l25.25-12.6,17.47,1.85-1.76,.98-36.63,18.28h0c-2.08-4.1-2.24-4.4-4.32-8.51Z"/>
      </g>
    </g>
    <g id="right_string" data-name="right string">
      <g id="right_end" data-name="right end">
        <g>
          <path class="cls-9" d="M334.91,125.97l6.78-.84c36.28-4.49,100.97-8.68,101.62-8.72l-.04,1.92c-.61,.04-57.18,3.71-94.06,7.84,47.23,6.33,94.49-.85,94.98-.92l.38,1.87c-.53,.08-53.17,8.09-103.28-.1l-6.38-1.04Z"/>
          <path class="cls-5" d="M436.31,99.71c3.01-.37,4.72-.53,4.81-.54l.09,1.91c-.49,.05-48.09,4.6-92.34,22.25,36.78-4.98,92.53-15.2,93.13-15.31l.5,1.85c-.64,.12-64.41,11.81-100.69,16.3l-6.78,.84,5.93-2.57c38.42-16.61,81.2-22.97,95.33-24.72Z"/>
        </g>
        <path class="cls-9" d="M344.36,129.13l-.93-7.49c-.23-1.89-2.85-3.14-5.81-2.77h0c-2.96,.37-5.19,2.21-4.96,4.1l.93,7.49c.23,1.89,2.85,3.14,5.81,2.77h0c2.96-.37,5.19-2.21,4.96-4.1Z"/>
      </g>
      <g id="right_path" data-name="right path">
        <polygon class="cls-9" points="336.19 130.14 331.99 138.54 313.54 140.82 335.26 122.65 336.19 130.14"/>
        <polygon class="cls-9" points="117.75 141.67 117.98 141.64 86.44 167.74 84.78 169.11 67.35 171.27 68.84 169.92 100.38 143.82 117.75 141.67"/>
        <polygon class="cls-5" points="135.35 139.49 135.58 139.47 104.04 165.56 102.38 166.94 84.94 169.09 86.44 167.74 117.98 141.64 135.35 139.49"/>
        <polygon class="cls-9" points="152.95 137.32 153.17 137.29 121.63 163.39 119.97 164.76 102.54 166.92 104.04 165.56 135.58 139.47 152.95 137.32"/>
        <polygon class="cls-3" points="170.54 135.14 170.77 135.11 139.23 161.21 137.57 162.58 120.14 164.74 121.63 163.39 153.17 137.29 170.54 135.14"/>
        <polygon class="cls-9" points="188.14 132.97 188.37 132.94 156.83 159.03 155.17 160.41 137.74 162.56 139.23 161.21 170.77 135.11 188.14 132.97"/>
        <polygon class="cls-3" points="205.74 130.79 205.97 130.76 174.42 156.86 172.77 158.23 155.33 160.39 156.83 159.03 188.37 132.94 205.74 130.79"/>
        <polygon class="cls-9" points="223.33 128.61 223.56 128.58 192.02 154.68 190.36 156.05 172.93 158.21 174.42 156.86 205.97 130.76 223.33 128.61"/>
        <polygon class="cls-3" points="240.93 126.44 241.16 126.41 209.62 152.5 207.96 153.88 190.53 156.03 192.02 154.68 223.56 128.58 240.93 126.44"/>
        <polygon class="cls-9" points="258.53 124.26 258.76 124.23 227.22 150.33 225.56 151.7 208.12 153.86 209.62 152.5 241.16 126.41 258.53 124.26"/>
        <polygon class="cls-3" points="276.13 122.08 276.35 122.06 244.81 148.15 243.15 149.52 225.72 151.68 227.22 150.33 258.76 124.23 276.13 122.08"/>
        <polygon class="cls-9" points="293.72 119.91 293.95 119.88 262.41 145.98 260.75 147.35 243.32 149.5 244.81 148.15 276.35 122.06 293.72 119.91"/>
        <polygon class="cls-3" points="311.32 117.73 311.55 117.7 280.01 143.8 278.35 145.17 260.91 147.33 262.41 145.98 293.95 119.88 311.32 117.73"/>
        <polygon class="cls-9" points="328.92 115.55 329.15 115.53 297.6 141.62 295.95 143 278.51 145.15 280.01 143.8 311.55 117.7 328.92 115.55"/>
        <path class="cls-3" d="M335.28,122.83l-21.74,17.99-17.43,2.16,1.5-1.35,31.54-26.1h0c2.96,3.52,3.18,3.78,6.14,7.31Z"/>
      </g>
    </g>
    <path id="RIGHT_SIDE_1" data-name="RIGHT SIDE 1" class="cls-7" d="M773.33,169.1c10.38,.98,21.34,2.33,32.81,4.17,9.84,1.58,19.21,3.38,28.08,5.32l73.69-4.43c1.3-13.16,2.21-22.85,2.53-26.02,.04-.41,.15-1.5-.19-2.84-.61-2.42-2.23-3.94-2.94-4.57-10.83-9.57-37.45-15.44-37.45-15.44-12.32-2.72-18.48-4.08-20.59-4.49-21.33-4.18-38.55-6.35-52.57-8.1-4.64-.58-11.15-1.34-18.98-2.19l-34.1,14.24c-.76,9.16-1.52,18.32-2.28,27.48,10.67,5.63,21.34,11.25,32.01,16.88Z"/>
    <path id="RIGHT_SIDE_2" data-name="RIGHT SIDE 2" class="cls-6" d="M910.43,148.13c-.36,3.37-2.54,6.06-2.75,6.31-1.03,1.23-2.07,1.95-2.5,2.24-5.78,3.87-18.12,8.63-20.82,9.66-6.8,2.27-16.73,5.32-28.95,8.12-12.59,2.89-22.32,4.34-27.81,5.08-64.59,8.77-90.43,10.8-90.43,10.8-5.15,.35-10.12,.69-14.93,1.01v58.99c13.99-1.27,44.91-4.25,73.08-8.13,13.1-1.81,24.36-3.65,28.13-4.28,15.93-2.64,25.44-4.58,28.4-5.2,8.37-1.74,13.91-2.93,19.64-4.5,2.5-.69,4.66-1.35,6.46-1.91,6.56-2.06,12.1-3.82,18.62-7.04,5.92-2.93,8.59-5.06,10.18-6.48,1.81-1.61,3.16-3.13,4.06-4.23v-61.93"/>
    <path id="CENTER_BENDED" data-name="CENTER BENDED" class="cls-7" d="M721.68,250.23c-5.38,.44-8.52,.67-8.52,.67-43.67,3.29-76.65,4.53-106.81,5.63-9.67,.35-45.08,1.6-92.61,2.17-28.87,.34-72.8,.82-130.69-.58-18.24-.44-61.35-1.63-116.49-4.91,0,0-6.97-.41-18.73-1.25v-58.24c.77,.05,1.54,.1,2.3,.15,52.38,3.31,93.25,4.49,107.75,4.88,95.08,2.57,169.63,1.13,199.74,.4,51.53-1.24,91.32-3.52,164.05-7.92"/>
    <path id="line_curved" data-name="line curved" class="cls-14" d="M710.71,245.73c-42.45,3.15-74.76,4.37-104.35,5.45-9.67,.35-45.08,1.6-92.61,2.17-28.87,.34-72.8,.82-130.69-.58-18.24-.44-61.35-1.63-116.49-4.91,0,0-2.32-.14-6.54-.41v-3.71c4.22,.28,6.54,.41,6.54,.41,55.14,3.28,98.25,4.47,116.49,4.91,57.89,1.39,101.81,.92,130.69,.58,47.53-.56,82.94-1.81,92.61-2.17,29.59-1.08,61.9-2.29,104.35-5.45v3.71Z"/>
    <text font-size="7em" font-family='Low Gun Screen'>
      <textPath id="MAIN_NAME" fill="white" xlink:href="#line_curved" startOffset="75%" text-anchor="middle">
        NAME
      </textPath>
    </text>
    <path id="LEFT_SIDE_1" data-name="LEFT SIDE 1" class="cls-7" d="M183.45,172.98c-8.15,.96-16.56,2.11-25.21,3.47-8.38,1.32-16.47,2.76-24.28,4.29l-73.32-.76c-.85-6.15-2.79-21.28-2.06-28.61,.06-.57,.15-1.32,.44-2.24,1.5-4.79,6.06-7.35,10.16-9.62,1.76-.97,3.52-1.71,7.03-3.17,3.9-1.63,8.52-3.35,8.52-3.35h0c7.74-2.89,23.08-7.68,64.19-14.63,10.29-1.74,20.28-3.14,29.94-4.27l29.27,16.25,2.04,23.27-26.71,19.37Z"/>
    <path id="LEFT_SIDE_2" data-name="LEFT SIDE 2" class="cls-7" d="M58.57,151.36c-.04,.58-.03,1.24,.1,1.94,.39,2.25,1.89,4.99,9.15,9.2,3.66,2.13,9.09,4.8,16.26,6.77,13.64,3.83,20.46,5.74,23.66,6.4,27.63,5.71,42.3,7.68,42.3,7.68,50.44,6.77,80.05,9.12,80.05,9.12,6.2,.49,12.27,.95,18.18,1.37v58.24c-15.74-1.24-41.09-3.42-69.57-6.55,0,0-21.82-2.4-56.01-8.66,0,0-6.72-1.23-26.13-6.21,0,0-20.06-5.14-29.88-12.13-3.97-2.82-7.07-6.21-7.07-6.21-.7-.76-1.35-1.52-1.94-2.27v-58.76"/>
    <g id="BARS">
      <g>
        <g id="_Mirror_Repeat_" data-name="&amp;lt;Mirror Repeat&amp;gt;">
          <g class="cls-8">
            <g>
              <path class="cls-5" d="M906.66,207.12c-.73,1.14-1.72,2.47-3.06,3.84-1.64,1.69-3.32,2.93-4.7,3.82-.03-15.64-.05-31.28-.08-46.92,1.22-.48,2.65-1.15,4.15-2.05,1.6-.97,2.82-1.96,3.73-2.79-.01,14.7-.02,29.4-.03,44.11Z"/>
              <path class="cls-4" d="M906.67,202.71c-.74,.93-1.82,2.09-3.37,3.28-1.58,1.2-3.15,2.05-4.41,2.63"/>
              <path class="cls-4" d="M906.67,197.16c-.87,.88-1.99,1.87-3.4,2.89-1.55,1.11-3.07,1.96-4.39,2.61"/>
              <path class="cls-4" d="M906.67,189.97c-.14,.25-.3,.5-.47,.75-1.84,2.62-4.89,4.18-7.33,5.1"/>
              <path class="cls-4" d="M906.68,177.41c-.78,.77-1.91,1.74-3.49,2.68-1.61,.96-3.15,1.58-4.35,1.98"/>
              <path class="cls-4" d="M906.68,183.45c-.79,.86-1.88,1.89-3.36,2.92-1.61,1.13-3.19,1.92-4.47,2.47"/>
              <path class="cls-4" d="M906.69,170.79c-.84,.81-2.1,1.86-3.9,2.84-1.45,.79-2.84,1.32-3.96,1.67"/>
            </g>
            <g>
              <path class="cls-5" d="M892.55,217.4c-1.83,.82-3.86,1.65-6.08,2.46-2.64,.96-5.16,1.74-7.48,2.38,0-15.83,0-31.66,.01-47.49,2.59-.69,5.31-1.49,8.14-2.42,1.93-.64,3.77-1.29,5.51-1.94-.03,15.67-.06,31.34-.1,47.02Z"/>
              <path class="cls-4" d="M892.59,212.6c-4.52,1.28-9.04,2.57-13.57,3.85"/>
              <path class="cls-4" d="M892.59,205.39c-4.52,1.26-9.04,2.51-13.57,3.77"/>
              <path class="cls-4" d="M892.59,198c-4.56,1.24-9.13,2.48-13.69,3.72"/>
              <path class="cls-4" d="M892.59,190.87c-4.52,1.17-9.04,2.33-13.57,3.5"/>
              <path class="cls-4" d="M892.59,183.73c-4.56,1.23-9.13,2.46-13.69,3.69"/>
              <path class="cls-4" d="M892.59,176.65c-4.5,1.24-9,2.49-13.51,3.73"/>
            </g>
            <g>
              <path class="cls-5" d="M871.66,224.57c-1.88,.61-3.9,1.21-6.08,1.78-2.63,.69-5.14,1.26-7.49,1.71,0-15.86,.01-31.72,.02-47.58,2.35-.48,4.83-1.07,7.43-1.76,2.21-.59,4.28-1.22,6.21-1.84-.03,15.9-.07,31.8-.1,47.69Z"/>
              <path class="cls-4" d="M871.7,219.09c-4.53,1.04-9.05,2.08-13.58,3.12"/>
              <path class="cls-4" d="M871.7,211.88c-4.53,.97-9.05,1.93-13.58,2.9"/>
              <path class="cls-4" d="M871.71,204.49l-13.61,2.67"/>
              <path class="cls-4" d="M871.7,197.36c-4.53,.96-9.07,1.92-13.6,2.89"/>
              <path class="cls-4" d="M871.71,190.22c-4.53,.92-9.07,1.85-13.6,2.77"/>
              <path class="cls-4" d="M871.7,183.14c-4.53,.92-9.07,1.83-13.6,2.75"/>
            </g>
            <g>
              <path class="cls-5" d="M850.88,229.85c-2.04,.42-4.19,.82-6.45,1.19-2.47,.4-4.85,.73-7.12,1,0-15.82,.01-31.64,.02-47.46,2.35-.4,4.76-.83,7.23-1.31,2.2-.43,4.34-.87,6.42-1.32-.03,15.97-.07,31.93-.1,47.9Z"/>
              <path class="cls-4" d="M850.9,223.69c-4.53,.86-9.05,1.73-13.58,2.59"/>
              <path class="cls-4" d="M850.91,216.48c-4.53,.82-9.06,1.65-13.59,2.47"/>
              <path class="cls-4" d="M850.93,209.09c-4.53,.78-9.07,1.57-13.6,2.35"/>
              <path class="cls-4" d="M850.94,201.94c-4.54,.73-9.07,1.46-13.61,2.2"/>
              <path class="cls-4" d="M850.95,194.84c-4.54,.73-9.08,1.46-13.62,2.18"/>
              <path class="cls-4" d="M850.97,187.73c-4.54,.75-9.09,1.5-13.63,2.26"/>
            </g>
            <g>
              <path class="cls-5" d="M829.49,233.53c-2.04,.42-4.19,.82-6.45,1.19-2.47,.4-4.85,.73-7.12,1,0-16.02,.01-32.04,.02-48.06,2.23-.26,4.53-.57,6.91-.92,2.33-.35,4.58-.72,6.74-1.11-.03,15.97-.07,31.93-.1,47.9Z"/>
              <path class="cls-4" d="M829.5,227.39l-13.58,1.78"/>
              <path class="cls-4" d="M829.51,220.11c-4.53,.61-9.06,1.22-13.59,1.84"/>
              <path class="cls-4" d="M829.53,212.73c-4.53,.61-9.07,1.22-13.6,1.83"/>
              <path class="cls-4" d="M829.54,205.63c-4.54,.6-9.08,1.21-13.62,1.81"/>
              <path class="cls-4" d="M829.56,198.47c-4.54,.61-9.09,1.22-13.63,1.82"/>
              <path class="cls-4" d="M829.57,191.37c-4.55,.62-9.1,1.23-13.65,1.85"/>
            </g>
            <g>
              <path class="cls-5" d="M808.23,236.99c-2.1,.41-4.36,.8-6.76,1.15-2.38,.34-4.66,.61-6.81,.81,0-16.11,.01-32.22,.02-48.33,4.55-.59,9.1-1.18,13.64-1.76-.03,16.04-.07,32.09-.1,48.13Z"/>
              <line class="cls-4" x1="808.28" y1="231.08" x2="794.67" y2="232.4"/>
              <line class="cls-4" x1="808.28" y1="223.86" x2="794.67" y2="225.18"/>
              <line class="cls-4" x1="808.28" y1="216.47" x2="794.67" y2="217.79"/>
              <line class="cls-4" x1="808.28" y1="209.35" x2="794.67" y2="210.67"/>
              <line class="cls-4" x1="808.28" y1="202.21" x2="794.67" y2="203.53"/>
              <line class="cls-4" x1="808.28" y1="195.13" x2="794.67" y2="196.45"/>
            </g>
            <g>
              <path class="cls-5" d="M786.51,240.27c-2.07,.39-4.39,.74-6.93,1.01-2.39,.25-4.61,.39-6.64,.45,0-16.18,.02-32.35,.02-48.53,4.55-.52,9.09-1.04,13.64-1.56-.03,16.21-.07,32.42-.1,48.63Z"/>
              <line class="cls-4" x1="786.56" y1="233.85" x2="772.95" y2="235.17"/>
              <line class="cls-4" x1="786.56" y1="226.63" x2="772.95" y2="227.95"/>
              <line class="cls-4" x1="786.56" y1="219.24" x2="772.95" y2="220.56"/>
              <line class="cls-4" x1="786.56" y1="212.12" x2="772.95" y2="213.44"/>
              <line class="cls-4" x1="786.56" y1="204.98" x2="772.95" y2="206.3"/>
              <line class="cls-4" x1="786.56" y1="197.9" x2="772.95" y2="199.22"/>
            </g>
            <g>
              <path class="cls-5" d="M764.82,242.57c-2.07,.39-4.39,.74-6.93,1.01-2.39,.25-4.61,.39-6.64,.45,0-16.18,.02-32.35,.02-48.53,4.53-.44,9.06-.87,13.59-1.31-.02,16.13-.04,32.26-.05,48.39Z"/>
              <line class="cls-4" x1="764.86" y1="236.15" x2="751.25" y2="237.47"/>
              <line class="cls-4" x1="764.86" y1="228.93" x2="751.25" y2="230.25"/>
              <line class="cls-4" x1="764.87" y1="221.54" x2="751.26" y2="222.86"/>
              <line class="cls-4" x1="764.86" y1="214.42" x2="751.25" y2="215.74"/>
              <line class="cls-4" x1="764.87" y1="207.28" x2="751.26" y2="208.6"/>
              <line class="cls-4" x1="764.86" y1="200.2" x2="751.25" y2="201.52"/>
            </g>
            <g>
              <path class="cls-5" d="M742.83,244.29c-2.07,.39-4.39,.74-6.93,1.01-2.39,.25-4.61,.39-6.64,.45,0-16.18,.02-32.35,.02-48.53,4.53-.44,9.06-.87,13.59-1.31-.02,16.13-.04,32.26-.05,48.39Z"/>
              <line class="cls-4" x1="742.88" y1="237.87" x2="729.27" y2="239.19"/>
              <line class="cls-4" x1="742.88" y1="230.65" x2="729.27" y2="231.97"/>
              <line class="cls-4" x1="742.88" y1="223.26" x2="729.27" y2="224.58"/>
              <line class="cls-4" x1="742.88" y1="216.14" x2="729.27" y2="217.46"/>
              <line class="cls-4" x1="742.88" y1="209" x2="729.27" y2="210.32"/>
              <line class="cls-4" x1="742.88" y1="201.92" x2="729.27" y2="203.24"/>
            </g>
          </g>
        </g>
        <g id="_Mirror_Repeat_-2" data-name="&amp;lt;Mirror Repeat&amp;gt;">
          <g class="cls-12">
            <g>
              <path class="cls-5" d="M60.77,207.12c.73,1.14,1.72,2.47,3.06,3.84,1.64,1.69,3.32,2.93,4.7,3.82,.03-15.64,.05-31.28,.08-46.92-1.22-.48-2.65-1.15-4.15-2.05-1.6-.97-2.82-1.96-3.73-2.79,.01,14.7,.02,29.4,.03,44.11Z"/>
              <path class="cls-4" d="M60.77,202.71c.74,.93,1.82,2.09,3.37,3.28,1.58,1.2,3.15,2.05,4.41,2.63"/>
              <path class="cls-4" d="M60.76,197.16c.87,.88,1.99,1.87,3.4,2.89,1.55,1.11,3.07,1.96,4.39,2.61"/>
              <path class="cls-4" d="M60.76,189.97c.14,.25,.3,.5,.47,.75,1.84,2.62,4.89,4.18,7.33,5.1"/>
              <path class="cls-4" d="M60.75,177.41c.78,.77,1.91,1.74,3.49,2.68,1.61,.96,3.15,1.58,4.35,1.98"/>
              <path class="cls-4" d="M60.75,183.45c.79,.86,1.88,1.89,3.36,2.92,1.61,1.13,3.19,1.92,4.47,2.47"/>
              <path class="cls-4" d="M60.74,170.79c.84,.81,2.1,1.86,3.9,2.84,1.45,.79,2.84,1.32,3.96,1.67"/>
            </g>
            <g>
              <path class="cls-5" d="M74.89,217.4c1.83,.82,3.86,1.65,6.08,2.46,2.64,.96,5.16,1.74,7.48,2.38,0-15.83,0-31.66-.01-47.49-2.59-.69-5.31-1.49-8.14-2.42-1.93-.64-3.77-1.29-5.51-1.94,.03,15.67,.06,31.34,.1,47.02Z"/>
              <path class="cls-4" d="M74.84,212.6c4.52,1.28,9.04,2.57,13.57,3.85"/>
              <path class="cls-4" d="M74.84,205.39c4.52,1.26,9.04,2.51,13.57,3.77"/>
              <path class="cls-4" d="M74.84,198c4.56,1.24,9.13,2.48,13.69,3.72"/>
              <path class="cls-4" d="M74.84,190.87c4.52,1.17,9.04,2.33,13.57,3.5"/>
              <path class="cls-4" d="M74.84,183.73c4.56,1.23,9.13,2.46,13.69,3.69"/>
              <path class="cls-4" d="M74.84,176.65c4.5,1.24,9,2.49,13.51,3.73"/>
            </g>
            <g>
              <path class="cls-5" d="M95.77,224.57c1.88,.61,3.9,1.21,6.08,1.78,2.63,.69,5.14,1.26,7.49,1.71,0-15.86-.01-31.72-.02-47.58-2.35-.48-4.83-1.07-7.43-1.76-2.21-.59-4.28-1.22-6.21-1.84,.03,15.9,.07,31.8,.1,47.69Z"/>
              <path class="cls-4" d="M95.73,219.09c4.53,1.04,9.05,2.08,13.58,3.12"/>
              <path class="cls-4" d="M95.73,211.88c4.53,.97,9.05,1.93,13.58,2.9"/>
              <path class="cls-4" d="M95.73,204.49c4.54,.89,9.08,1.78,13.61,2.67"/>
              <path class="cls-4" d="M95.73,197.36c4.53,.96,9.07,1.92,13.6,2.89"/>
              <path class="cls-4" d="M95.73,190.22c4.53,.92,9.07,1.85,13.6,2.77"/>
              <path class="cls-4" d="M95.73,183.14c4.53,.92,9.07,1.83,13.6,2.75"/>
            </g>
            <g>
              <path class="cls-5" d="M116.55,229.85c2.04,.42,4.19,.82,6.45,1.19,2.47,.4,4.85,.73,7.12,1,0-15.82-.01-31.64-.02-47.46-2.35-.4-4.76-.83-7.23-1.31-2.2-.43-4.34-.87-6.42-1.32,.03,15.97,.07,31.93,.1,47.9Z"/>
              <path class="cls-4" d="M116.54,223.69c4.53,.86,9.05,1.73,13.58,2.59"/>
              <path class="cls-4" d="M116.52,216.48c4.53,.82,9.06,1.65,13.59,2.47"/>
              <path class="cls-4" d="M116.51,209.09c4.53,.78,9.07,1.57,13.6,2.35"/>
              <path class="cls-4" d="M116.49,201.94c4.54,.73,9.07,1.46,13.61,2.2"/>
              <path class="cls-4" d="M116.48,194.84c4.54,.73,9.08,1.46,13.62,2.18"/>
              <path class="cls-4" d="M116.46,187.73c4.54,.75,9.09,1.5,13.63,2.26"/>
            </g>
            <g>
              <path class="cls-5" d="M137.95,233.53c2.04,.42,4.19,.82,6.45,1.19,2.47,.4,4.85,.73,7.12,1l-.02-48.06c-2.23-.26-4.53-.57-6.91-.92-2.33-.35-4.58-.72-6.74-1.11,.03,15.97,.07,31.93,.1,47.9Z"/>
              <path class="cls-4" d="M137.93,227.39l13.58,1.78"/>
              <path class="cls-4" d="M137.92,220.11c4.53,.61,9.06,1.22,13.59,1.84"/>
              <path class="cls-4" d="M137.9,212.73c4.53,.61,9.07,1.22,13.6,1.83"/>
              <path class="cls-4" d="M137.89,205.63c4.54,.6,9.08,1.21,13.62,1.81"/>
              <path class="cls-4" d="M137.87,198.47c4.54,.61,9.09,1.22,13.63,1.82"/>
              <path class="cls-4" d="M137.86,191.37c4.55,.62,9.1,1.23,13.65,1.85"/>
            </g>
            <g>
              <path class="cls-5" d="M159.2,236.99c2.1,.41,4.36,.8,6.76,1.15,2.38,.34,4.66,.61,6.81,.81,0-16.11-.01-32.22-.02-48.33-4.55-.59-9.1-1.18-13.64-1.76,.03,16.04,.07,32.09,.1,48.13Z"/>
              <line class="cls-4" x1="159.15" y1="231.08" x2="172.76" y2="232.4"/>
              <line class="cls-4" x1="159.15" y1="223.86" x2="172.76" y2="225.18"/>
              <line class="cls-4" x1="159.15" y1="216.47" x2="172.76" y2="217.79"/>
              <line class="cls-4" x1="159.15" y1="209.35" x2="172.76" y2="210.67"/>
              <line class="cls-4" x1="159.15" y1="202.21" x2="172.76" y2="203.53"/>
              <line class="cls-4" x1="159.15" y1="195.13" x2="172.76" y2="196.45"/>
            </g>
            <g>
              <path class="cls-5" d="M180.92,240.27c2.07,.39,4.39,.74,6.93,1.01,2.39,.25,4.61,.39,6.64,.45,0-16.18-.02-32.35-.02-48.53-4.55-.52-9.09-1.04-13.64-1.56,.03,16.21,.07,32.42,.1,48.63Z"/>
              <line class="cls-4" x1="180.87" y1="233.85" x2="194.48" y2="235.17"/>
              <line class="cls-4" x1="180.87" y1="226.63" x2="194.48" y2="227.95"/>
              <line class="cls-4" x1="180.87" y1="219.24" x2="194.48" y2="220.56"/>
              <line class="cls-4" x1="180.87" y1="212.12" x2="194.48" y2="213.44"/>
              <line class="cls-4" x1="180.87" y1="204.98" x2="194.48" y2="206.3"/>
              <line class="cls-4" x1="180.87" y1="197.9" x2="194.48" y2="199.22"/>
            </g>
            <g>
              <path class="cls-5" d="M202.62,242.57c2.07,.39,4.39,.74,6.93,1.01,2.39,.25,4.61,.39,6.64,.45,0-16.18-.02-32.35-.02-48.53-4.53-.44-9.06-.87-13.59-1.31,.02,16.13,.04,32.26,.05,48.39Z"/>
              <line class="cls-4" x1="202.57" y1="236.15" x2="216.18" y2="237.47"/>
              <line class="cls-4" x1="202.57" y1="228.93" x2="216.18" y2="230.25"/>
              <line class="cls-4" x1="202.57" y1="221.54" x2="216.18" y2="222.86"/>
              <line class="cls-4" x1="202.57" y1="214.42" x2="216.18" y2="215.74"/>
              <line class="cls-4" x1="202.57" y1="207.28" x2="216.18" y2="208.6"/>
              <line class="cls-4" x1="202.57" y1="200.2" x2="216.18" y2="201.52"/>
            </g>
            <g>
              <path class="cls-5" d="M224.6,244.29c2.07,.39,4.39,.74,6.93,1.01,2.39,.25,4.61,.39,6.64,.45,0-16.18-.02-32.35-.02-48.53-4.53-.44-9.06-.87-13.59-1.31,.02,16.13,.04,32.26,.05,48.39Z"/>
              <line class="cls-4" x1="224.55" y1="237.87" x2="238.16" y2="239.19"/>
              <line class="cls-4" x1="224.55" y1="230.65" x2="238.16" y2="231.97"/>
              <line class="cls-4" x1="224.55" y1="223.26" x2="238.16" y2="224.58"/>
              <line class="cls-4" x1="224.55" y1="216.14" x2="238.16" y2="217.46"/>
              <line class="cls-4" x1="224.55" y1="209" x2="238.16" y2="210.32"/>
              <line class="cls-4" x1="224.55" y1="201.92" x2="238.16" y2="203.24"/>
            </g>
          </g>
        </g>
      </g>
    </g>
    <path id="COVER2" class="cls-10" d="M241.82,194.06l7.55,.34c-.15,19.04-.3,38.09-.45,57.13-.65,0-1.32-.01-2.01-.05-1.52-.08-2.93-.24-4.23-.46-.29-18.99-.57-37.97-.86-56.96Z"/>
    <path id="COVER1" class="cls-11" d="M719.87,191.92c1.36-.03,2.72-.06,4.08-.09,.06,19.28,.12,38.56,.18,57.84-1.29,.07-2.57,.15-3.86,.22-.13-19.32-.27-38.65-.4-57.97Z"/>
  </g>
</svg>