<?xml version="1.0" encoding="UTF-8"?>
<svg xmlns="http://www.w3.org/2000/svg" xmlns:xlink="http://www.w3.org/1999/xlink" viewBox="0 0 1233.06 496.79">
  <defs>
    <style>
      .cls-1, .cls-2 {
        fill: none;
      }

      .cls-3 {
        stroke-width: .15px;
      }

      .cls-3, .cls-4, .cls-5 {
        fill: #fff;
      }

      .cls-3, .cls-4, .cls-5, .cls-6, .cls-2 {
        stroke: #231f20;
        stroke-miterlimit: 10;
      }

      .cls-7 {
        clip-path: url(#clippath);
      }

      .cls-8 {
        fill: #010101;
      }

      .cls-9, .cls-6 {
        fill: #c92127;
      }

      .cls-4 {
        stroke-width: .2px;
      }

      .cls-5 {
        stroke-width: .25px;
      }

      .cls-10 {
        clip-path: url(#clippath-1);
      }

      .cls-11 {
        filter: url(#drop-shadow-4);
      }

      .cls-12 {
        fill: transparent;
      }
    </style>
    <filter id="drop-shadow-1" filterUnits="userSpaceOnUse">
      <feOffset dx="8" dy="18"/>
      <feGaussianBlur result="blur" stdDeviation="20"/>
      <feFlood flood-color="#070808" flood-opacity=".75"/>
      <feComposite in2="blur" operator="in"/>
      <feComposite in="SourceGraphic"/>
    </filter>
    <filter id="drop-shadow-2" filterUnits="userSpaceOnUse">
      <feOffset dx="8" dy="18"/>
      <feGaussianBlur result="blur-2" stdDeviation="20"/>
      <feFlood flood-color="#070808" flood-opacity=".75"/>
      <feComposite in2="blur-2" operator="in"/>
      <feComposite in="SourceGraphic"/>
    </filter>
    <filter id="drop-shadow-3" filterUnits="userSpaceOnUse">
      <feOffset dx="8" dy="18"/>
      <feGaussianBlur result="blur-3" stdDeviation="20"/>
      <feFlood flood-color="#070808" flood-opacity=".75"/>
      <feComposite in2="blur-3" operator="in"/>
      <feComposite in="SourceGraphic"/>
    </filter>
    <filter id="drop-shadow-4" filterUnits="userSpaceOnUse">
      <feOffset dx="8" dy="18"/>
      <feGaussianBlur result="blur-4" stdDeviation="20"/>
      <feFlood flood-color="#070808" flood-opacity=".75"/>
      <feComposite in2="blur-4" operator="in"/>
      <feComposite in="SourceGraphic"/>
    </filter>
    <clipPath id="clippath">
      <rect class="cls-1" x="980.63" y="226.16" width="177.67" height="83.14"/>
    </clipPath>
    <clipPath id="clippath-1">
      <rect class="cls-1" x="45.92" y="229.77" width="177.67" height="83.14"/>
    </clipPath>
    <filter id="drop-shadow-5" filterUnits="userSpaceOnUse">
      <feOffset dx="8" dy="18"/>
      <feGaussianBlur result="blur-5" stdDeviation="20"/>
      <feFlood flood-color="#070808" flood-opacity=".75"/>
      <feComposite in2="blur-5" operator="in"/>
      <feComposite in="SourceGraphic"/>
    </filter>
    <filter id="drop-shadow-6" filterUnits="userSpaceOnUse">
      <feOffset dx="8" dy="18"/>
      <feGaussianBlur result="blur-6" stdDeviation="20"/>
      <feFlood flood-color="#070808" flood-opacity=".75"/>
      <feComposite in2="blur-6" operator="in"/>
      <feComposite in="SourceGraphic"/>
    </filter>
  </defs>
  <g id="_2D_BRACELET_LARGE_HIDDEN" data-name="2D BRACELET LARGE" class="cls-11">
    <g id="left_string" data-name="left string">
      <g id="left_end" data-name="left end">
        <g>
          <path class="cls-8" d="M756.83,193.73l-9.47-.72c-50.68-3.84-139.87-14.4-140.77-14.51l.66-1.86c.84,.1,78.82,9.33,130.21,13.66-62.14-16.86-128.59-20.57-129.28-20.61l.08-1.91c.75,.04,74.76,4.16,140.23,23.48l8.34,2.46Z"/>
          <path class="cls-5" d="M610.83,196.35c-4.2-.32-6.57-.55-6.7-.56l.48-1.88c.68,.07,66.75,6.41,132.43-.76-51.52-3.48-130.47-6.14-131.31-6.17l-.1-1.92c.91,.03,91.2,3.08,141.88,6.92l9.47,.72-8.87,1.16c-57.42,7.48-117.53,3.99-137.27,2.49Z"/>
        </g>
        <path class="cls-8" d="M744.98,188.52l-1.11,7.5c-.28,1.89,2.88,3.7,7.02,4.02h0c4.14,.31,7.75-.98,8.03-2.87l1.11-7.5c.28-1.89-2.88-3.7-7.02-4.02h0c-4.14-.31-7.75,.98-8.03,2.87Z"/>
      </g>
      <g id="left_path" data-name="left path">
        <polygon class="cls-5" points="1081.5 229.48 1081.17 229.46 1132.25 211.18 1134.93 210.22 1159.29 212.07 1156.83 213.05 1105.76 231.32 1081.5 229.48"/>
        <polygon class="cls-8" points="756.41 189.38 764.75 182.15 790.53 184.11 755.3 196.89 756.41 189.38"/>
        <polygon class="cls-8" points="1056.7 227.6 1056.38 227.58 1107.45 209.3 1110.14 208.34 1134.49 210.19 1132.03 211.17 1080.96 229.44 1056.7 227.6"/>
        <polygon class="cls-5" points="1032.11 225.74 1031.79 225.72 1082.86 207.44 1085.55 206.48 1109.91 208.32 1107.45 209.3 1056.38 227.58 1032.11 225.74"/>
        <polygon class="cls-8" points="1007.53 223.88 1007.21 223.85 1058.28 205.57 1060.96 204.61 1085.32 206.46 1082.86 207.44 1031.79 225.72 1007.53 223.88"/>
        <polygon class="cls-3" points="982.94 222.01 982.62 221.99 1033.69 203.71 1036.38 202.75 1060.74 204.6 1058.28 205.57 1007.21 223.85 982.94 222.01"/>
        <polygon class="cls-8" points="958.36 220.15 958.04 220.12 1009.11 201.85 1011.79 200.88 1036.15 202.73 1033.69 203.71 982.62 221.99 958.36 220.15"/>
        <polygon class="cls-3" points="933.77 218.28 933.45 218.26 984.52 199.98 987.21 199.02 1011.57 200.87 1009.11 201.85 958.04 220.12 933.77 218.28"/>
        <polygon class="cls-8" points="909.19 216.42 908.86 216.4 959.94 198.12 962.62 197.16 986.98 199 984.52 199.98 933.45 218.26 909.19 216.42"/>
        <polygon class="cls-3" points="884.6 214.56 884.28 214.53 935.35 196.25 938.04 195.29 962.4 197.14 959.94 198.12 908.86 216.4 884.6 214.56"/>
        <polygon class="cls-8" points="860.02 212.69 859.69 212.67 910.77 194.39 913.45 193.43 937.81 195.27 935.35 196.25 884.28 214.53 860.02 212.69"/>
        <polygon class="cls-3" points="835.43 210.83 835.11 210.8 886.18 192.53 888.87 191.56 913.23 193.41 910.77 194.39 859.69 212.67 835.43 210.83"/>
        <polygon class="cls-8" points="810.84 208.96 810.52 208.94 861.6 190.66 864.28 189.7 888.64 191.55 886.18 192.53 835.11 210.8 810.84 208.96"/>
        <polygon class="cls-3" points="786.26 207.1 785.94 207.07 837.01 188.8 839.7 187.84 864.06 189.68 861.6 190.66 810.52 208.94 786.26 207.1"/>
        <polygon class="cls-8" points="761.67 205.23 761.35 205.21 812.43 186.93 815.11 185.97 839.47 187.82 837.01 188.8 785.94 207.07 761.67 205.23"/>
        <path class="cls-3" d="M755.33,196.71l35.2-12.6,24.36,1.85-2.46,.98-51.07,18.28h0c-2.91-4.1-3.12-4.4-6.03-8.51Z"/>
      </g>
    </g>
    <g id="right_string" data-name="right string">
      <g id="right_end" data-name="right end">
        <g>
          <path class="cls-8" d="M428.24,193.01l9.45-.84c50.58-4.49,140.79-8.68,141.69-8.72l-.05,1.92c-.85,.04-79.72,3.71-131.14,7.84,65.85,6.33,131.74-.85,132.42-.92l.53,1.87c-.74,.08-74.13,8.09-144-.1l-8.9-1.04Z"/>
          <path class="cls-5" d="M569.61,166.75c4.19-.37,6.58-.53,6.71-.54l.12,1.91c-.69,.05-67.04,4.6-128.75,22.25,51.28-4.98,129.02-15.2,129.85-15.31l.7,1.85c-.89,.12-89.81,11.81-140.39,16.3l-9.45,.84,8.27-2.57c53.57-16.61,113.21-22.97,132.92-24.72Z"/>
        </g>
        <path class="cls-8" d="M441.42,196.17l-1.29-7.49c-.33-1.89-3.97-3.14-8.1-2.77h0c-4.13,.37-7.24,2.21-6.92,4.1l1.29,7.49c.33,1.89,3.97,3.14,8.1,2.77h0c4.13-.37,7.24-2.21,6.92-4.1Z"/>
      </g>
      <g id="right_path" data-name="right path">
        <polygon class="cls-8" points="430.02 197.18 424.17 205.58 398.45 207.86 428.73 189.69 430.02 197.18"/>
        <polygon class="cls-8" points="125.46 208.71 125.78 208.68 81.8 234.78 79.49 236.15 55.18 238.31 57.27 236.95 101.24 210.86 125.46 208.71"/>
        <polygon class="cls-5" points="150 206.53 150.31 206.51 106.34 232.6 104.02 233.97 79.72 236.13 81.8 234.78 125.78 208.68 150 206.53"/>
        <polygon class="cls-8" points="174.53 204.36 174.85 204.33 130.87 230.43 128.56 231.8 104.25 233.95 106.34 232.6 150.31 206.51 174.53 204.36"/>
        <polygon class="cls-3" points="199.07 202.18 199.39 202.15 155.41 228.25 153.09 229.62 128.79 231.78 130.87 230.43 174.85 204.33 199.07 202.18"/>
        <polygon class="cls-8" points="223.6 200 223.92 199.98 179.94 226.07 177.63 227.45 153.32 229.6 155.41 228.25 199.39 202.15 223.6 200"/>
        <polygon class="cls-3" points="248.14 197.83 248.46 197.8 204.48 223.9 202.16 225.27 177.86 227.43 179.94 226.07 223.92 199.98 248.14 197.83"/>
        <polygon class="cls-8" points="272.67 195.65 272.99 195.62 229.01 221.72 226.7 223.09 202.39 225.25 204.48 223.9 248.46 197.8 272.67 195.65"/>
        <polygon class="cls-3" points="297.21 193.48 297.53 193.45 253.55 219.54 251.24 220.92 226.93 223.07 229.01 221.72 272.99 195.62 297.21 193.48"/>
        <polygon class="cls-8" points="321.74 191.3 322.06 191.27 278.08 217.37 275.77 218.74 251.46 220.9 253.55 219.54 297.53 193.45 321.74 191.3"/>
        <polygon class="cls-3" points="346.28 189.12 346.6 189.09 302.62 215.19 300.31 216.56 276 218.72 278.08 217.37 322.06 191.27 346.28 189.12"/>
        <polygon class="cls-8" points="370.81 186.95 371.13 186.92 327.15 213.02 324.84 214.39 300.53 216.54 302.62 215.19 346.6 189.09 370.81 186.95"/>
        <polygon class="cls-3" points="395.35 184.77 395.67 184.74 351.69 210.84 349.38 212.21 325.07 214.37 327.15 213.02 371.13 186.92 395.35 184.77"/>
        <polygon class="cls-8" points="419.88 182.59 420.2 182.57 376.22 208.66 373.91 210.03 349.6 212.19 351.69 210.84 395.67 184.74 419.88 182.59"/>
        <path class="cls-3" d="M428.76,189.87l-30.31,17.99-24.31,2.16,2.09-1.35,43.98-26.1h0c4.13,3.52,4.43,3.78,8.56,7.31Z"/>
      </g>
    </g>
    <path id="RIGHT_SIDE_1" data-name="RIGHT SIDE 1" class="cls-6" d="M969.8,236.13c14.47,.98,29.75,2.33,45.74,4.17,13.73,1.58,26.79,3.38,39.15,5.32l102.74-4.43c1.81-13.16,3.08-22.85,3.52-26.02,.06-.41,.21-1.5-.26-2.84-.85-2.42-3.11-3.94-4.1-4.57-15.1-9.57-52.21-15.44-52.21-15.44-17.18-2.72-25.77-4.08-28.71-4.49-29.74-4.18-53.75-6.35-73.3-8.1-6.47-.58-15.54-1.34-26.47-2.19l-47.55,14.24c-1.06,9.16-2.12,18.32-3.18,27.48,14.88,5.63,29.75,11.25,44.63,16.88Z"/>
    <path id="RIGHT_SIDE_2" data-name="RIGHT SIDE 2" class="cls-6" d="M1161.07,215.16c-.38,3.37-2.74,6.06-2.97,6.31-1.11,1.23-2.23,1.95-2.7,2.24-6.23,3.87-19.55,8.63-22.46,9.66-7.34,2.27-18.05,5.32-31.23,8.12-13.58,2.89-24.08,4.34-30,5.08-69.69,8.77-97.56,10.8-97.56,10.8-5.56,.35-10.92,.69-16.11,1.01v58.99c15.09-1.27,48.45-4.25,78.84-8.13,14.14-1.81,26.28-3.65,30.35-4.28,17.19-2.64,27.44-4.58,30.64-5.2,9.03-1.74,15.01-2.93,21.19-4.5,2.7-.69,5.03-1.35,6.97-1.91,7.08-2.06,13.06-3.82,20.09-7.04,6.38-2.93,9.27-5.06,10.98-6.48,1.96-1.61,3.41-3.13,4.38-4.23v-61.93"/>
    <path id="CENTER_BENDED" data-name="CENTER BENDED" class="cls-6" d="M958.04,317.44c-8.13,.44-12.87,.67-12.87,.67-66.01,3.29-115.87,4.53-161.46,5.63-14.63,.35-68.15,1.6-140,2.17-43.65,.34-110.05,.82-197.56-.58-27.58-.44-92.74-1.63-176.1-4.91,0,0-10.53-.41-28.32-1.25v-58.24c1.16,.05,2.33,.1,3.48,.15,79.19,3.31,140.97,4.49,162.88,4.88,143.73,2.57,256.44,1.13,301.95,.4,77.9-1.24,138.05-3.52,248-7.92"/>
    <path id="line_curved" data-name="line curved" class="cls-12" d="M945.31,312.77c-65.01,3.15-114.48,4.37-159.8,5.45-14.82,.35-69.03,1.6-141.82,2.17-44.22,.34-111.48,.82-200.13-.58-27.93-.44-93.94-1.63-178.38-4.91,0,0-3.55-.14-10.01-.41v-3.71c6.46,.28,10.01,.41,10.01,.41,84.44,3.28,150.45,4.47,178.38,4.91,88.65,1.39,155.91,.92,200.13,.58,72.79-.56,127-1.81,141.82-2.17,45.31-1.08,94.79-2.29,159.8-5.45v3.71Z"/>
    <text font-size="7em" font-family='Low Gun Screen'>
      <textPath id="MAIN_NAME" fill="white" xlink:href="#line_curved" startOffset="75%" text-anchor="middle">
        NAME
      </textPath>
    </text>
    <path id="LEFT_SIDE_1" data-name="LEFT SIDE 1" class="cls-6" d="M217.06,240.02c-11.36,.96-23.09,2.11-35.15,3.47-11.68,1.32-22.97,2.76-33.85,4.29l-102.23-.76c-1.18-6.15-3.89-21.28-2.87-28.61,.08-.57,.21-1.32,.61-2.24,2.09-4.79,8.45-7.35,14.16-9.62,2.46-.97,4.91-1.71,9.79-3.17,5.43-1.63,11.89-3.35,11.89-3.35h0c10.79-2.89,32.18-7.68,89.5-14.63,14.35-1.74,28.28-3.14,41.74-4.27l40.82,16.25,2.84,23.27-37.24,19.37Z"/>
    <path id="LEFT_SIDE_2" data-name="LEFT SIDE 2" class="cls-6" d="M42.64,218.4c-.04,.58-.03,1.24,.1,1.94,.41,2.25,1.99,4.99,9.61,9.2,3.84,2.13,9.53,4.8,17.06,6.77,14.31,3.83,21.47,5.74,24.83,6.4,29,5.71,44.39,7.68,44.39,7.68,52.93,6.77,84.01,9.12,84.01,9.12,6.51,.49,12.88,.95,19.08,1.37v58.24c-16.52-1.24-43.12-3.42-73.01-6.55,0,0-22.9-2.4-58.78-8.66,0,0-7.06-1.23-27.42-6.21,0,0-21.05-5.14-31.36-12.13-4.16-2.82-7.42-6.21-7.42-6.21-.74-.76-1.41-1.52-2.04-2.27v-58.76"/>
    <g>
      <g id="_Mirror_Repeat_" data-name="&amp;lt;Mirror Repeat&amp;gt;">
        <g class="cls-7">
          <g>
            <path class="cls-5" d="M1158.15,270.55c-.73,1.14-1.72,2.47-3.06,3.84-1.64,1.69-3.32,2.93-4.7,3.82-.03-15.64-.05-31.28-.08-46.92,1.22-.48,2.65-1.15,4.15-2.05,1.6-.97,2.82-1.96,3.73-2.79-.01,14.7-.02,29.4-.03,44.11Z"/>
            <path class="cls-4" d="M1158.15,266.14c-.74,.93-1.82,2.09-3.37,3.28-1.58,1.2-3.15,2.05-4.41,2.63"/>
            <path class="cls-4" d="M1158.16,260.6c-.87,.88-1.99,1.87-3.4,2.89-1.55,1.11-3.07,1.96-4.39,2.61"/>
            <path class="cls-4" d="M1158.16,253.4c-.14,.25-.3,.5-.47,.75-1.84,2.62-4.89,4.18-7.33,5.1"/>
            <path class="cls-4" d="M1158.17,240.84c-.78,.77-1.91,1.74-3.49,2.68-1.61,.96-3.15,1.58-4.35,1.98"/>
            <path class="cls-4" d="M1158.17,246.89c-.79,.86-1.88,1.89-3.36,2.92-1.61,1.13-3.19,1.92-4.47,2.47"/>
            <path class="cls-4" d="M1158.18,234.22c-.84,.81-2.1,1.86-3.9,2.84-1.45,.79-2.84,1.32-3.96,1.67"/>
          </g>
          <g>
            <path class="cls-5" d="M1144.04,280.84c-1.83,.82-3.86,1.65-6.08,2.46-2.64,.96-5.16,1.74-7.48,2.38,0-15.83,0-31.66,.01-47.49,2.59-.69,5.31-1.49,8.14-2.42,1.93-.64,3.77-1.29,5.51-1.94-.03,15.67-.06,31.34-.1,47.02Z"/>
            <path class="cls-4" d="M1144.08,276.04c-4.52,1.28-9.04,2.57-13.57,3.85"/>
            <path class="cls-4" d="M1144.08,268.82c-4.52,1.26-9.04,2.51-13.57,3.77"/>
            <path class="cls-4" d="M1144.08,261.43c-4.56,1.24-9.13,2.48-13.69,3.72"/>
            <path class="cls-4" d="M1144.08,254.31c-4.52,1.17-9.04,2.33-13.57,3.5"/>
            <path class="cls-4" d="M1144.08,247.16c-4.56,1.23-9.13,2.46-13.69,3.69"/>
            <path class="cls-4" d="M1144.08,240.09c-4.5,1.24-9,2.49-13.51,3.73"/>
          </g>
          <g>
            <path class="cls-5" d="M1123.15,288c-1.88,.61-3.9,1.21-6.08,1.78-2.63,.69-5.14,1.26-7.49,1.71,0-15.86,.01-31.72,.02-47.58,2.35-.48,4.83-1.07,7.43-1.76,2.21-.59,4.28-1.22,6.21-1.84-.03,15.9-.07,31.8-.1,47.69Z"/>
            <path class="cls-4" d="M1123.19,282.53c-4.53,1.04-9.05,2.08-13.58,3.12"/>
            <path class="cls-4" d="M1123.19,275.31c-4.53,.97-9.05,1.93-13.58,2.9"/>
            <path class="cls-4" d="M1123.2,267.92l-13.61,2.67"/>
            <path class="cls-4" d="M1123.19,260.8c-4.53,.96-9.07,1.92-13.6,2.89"/>
            <path class="cls-4" d="M1123.2,253.66c-4.53,.92-9.07,1.85-13.6,2.77"/>
            <path class="cls-4" d="M1123.19,246.58c-4.53,.92-9.07,1.83-13.6,2.75"/>
          </g>
          <g>
            <path class="cls-5" d="M1102.37,293.28c-2.04,.42-4.19,.82-6.45,1.19-2.47,.4-4.85,.73-7.12,1,0-15.82,.01-31.64,.02-47.46,2.35-.4,4.76-.83,7.23-1.31,2.2-.43,4.34-.87,6.42-1.32-.03,15.97-.07,31.93-.1,47.9Z"/>
            <path class="cls-4" d="M1102.38,287.13c-4.53,.86-9.05,1.73-13.58,2.59"/>
            <path class="cls-4" d="M1102.4,279.91c-4.53,.82-9.06,1.65-13.59,2.47"/>
            <path class="cls-4" d="M1102.41,272.53c-4.53,.78-9.07,1.57-13.6,2.35"/>
            <path class="cls-4" d="M1102.43,265.37c-4.54,.73-9.07,1.46-13.61,2.2"/>
            <path class="cls-4" d="M1102.44,258.27c-4.54,.73-9.08,1.46-13.62,2.18"/>
            <path class="cls-4" d="M1102.46,251.17c-4.54,.75-9.09,1.5-13.63,2.26"/>
          </g>
          <g>
            <path class="cls-5" d="M1080.97,296.96c-2.04,.42-4.19,.82-6.45,1.19-2.47,.4-4.85,.73-7.12,1,0-16.02,.01-32.04,.02-48.06,2.23-.26,4.53-.57,6.91-.92,2.33-.35,4.58-.72,6.74-1.11-.03,15.97-.07,31.93-.1,47.9Z"/>
            <path class="cls-4" d="M1080.99,290.82c-4.53,.59-9.05,1.19-13.58,1.78"/>
            <path class="cls-4" d="M1081,283.55c-4.53,.61-9.06,1.22-13.59,1.84"/>
            <path class="cls-4" d="M1081.02,276.16c-4.53,.61-9.07,1.22-13.6,1.83"/>
            <path class="cls-4" d="M1081.03,269.06c-4.54,.6-9.08,1.21-13.62,1.81"/>
            <path class="cls-4" d="M1081.05,261.91c-4.54,.61-9.09,1.22-13.63,1.82"/>
            <path class="cls-4" d="M1081.06,254.8c-4.55,.62-9.1,1.23-13.65,1.85"/>
          </g>
          <g>
            <path class="cls-5" d="M1059.72,300.43c-2.1,.41-4.36,.8-6.76,1.15-2.38,.34-4.66,.61-6.81,.81,0-16.11,.01-32.22,.02-48.33,4.55-.59,9.1-1.18,13.64-1.76-.03,16.04-.07,32.09-.1,48.13Z"/>
            <line class="cls-4" x1="1059.77" y1="294.51" x2="1046.16" y2="295.83"/>
            <line class="cls-4" x1="1059.77" y1="287.3" x2="1046.16" y2="288.62"/>
            <line class="cls-4" x1="1059.77" y1="279.91" x2="1046.16" y2="281.23"/>
            <line class="cls-4" x1="1059.77" y1="272.79" x2="1046.16" y2="274.11"/>
            <line class="cls-4" x1="1059.77" y1="265.64" x2="1046.16" y2="266.96"/>
            <line class="cls-4" x1="1059.77" y1="258.57" x2="1046.16" y2="259.89"/>
          </g>
          <g>
            <path class="cls-5" d="M1038,303.7c-2.07,.39-4.39,.74-6.93,1.01-2.39,.25-4.61,.39-6.64,.45,0-16.18,.02-32.35,.02-48.53,4.55-.52,9.09-1.04,13.64-1.56-.03,16.21-.07,32.42-.1,48.63Z"/>
            <line class="cls-4" x1="1038.05" y1="297.28" x2="1024.44" y2="298.6"/>
            <line class="cls-4" x1="1038.05" y1="290.07" x2="1024.44" y2="291.39"/>
            <line class="cls-4" x1="1038.05" y1="282.68" x2="1024.44" y2="284"/>
            <line class="cls-4" x1="1038.05" y1="275.56" x2="1024.44" y2="276.88"/>
            <line class="cls-4" x1="1038.05" y1="268.41" x2="1024.44" y2="269.73"/>
            <line class="cls-4" x1="1038.05" y1="261.34" x2="1024.44" y2="262.66"/>
          </g>
          <g>
            <path class="cls-5" d="M1016.3,306c-2.07,.39-4.39,.74-6.93,1.01-2.39,.25-4.61,.39-6.64,.45,0-16.18,.02-32.35,.02-48.53,4.53-.44,9.06-.87,13.59-1.31-.02,16.13-.04,32.26-.05,48.39Z"/>
            <line class="cls-4" x1="1016.35" y1="299.58" x2="1002.74" y2="300.9"/>
            <line class="cls-4" x1="1016.35" y1="292.37" x2="1002.74" y2="293.69"/>
            <line class="cls-4" x1="1016.35" y1="284.98" x2="1002.74" y2="286.3"/>
            <line class="cls-4" x1="1016.35" y1="277.86" x2="1002.74" y2="279.18"/>
            <line class="cls-4" x1="1016.35" y1="270.71" x2="1002.74" y2="272.03"/>
            <line class="cls-4" x1="1016.35" y1="263.64" x2="1002.74" y2="264.96"/>
          </g>
          <g>
            <path class="cls-5" d="M994.32,307.72c-2.07,.39-4.39,.74-6.93,1.01-2.39,.25-4.61,.39-6.64,.45,0-16.18,.02-32.35,.02-48.53,4.53-.44,9.06-.87,13.59-1.31-.02,16.13-.04,32.26-.05,48.39Z"/>
            <line class="cls-4" x1="994.37" y1="301.3" x2="980.76" y2="302.62"/>
            <line class="cls-4" x1="994.37" y1="294.09" x2="980.76" y2="295.41"/>
            <line class="cls-4" x1="994.37" y1="286.7" x2="980.76" y2="288.02"/>
            <line class="cls-4" x1="994.37" y1="279.57" x2="980.76" y2="280.9"/>
            <line class="cls-4" x1="994.37" y1="272.43" x2="980.76" y2="273.75"/>
            <line class="cls-4" x1="994.37" y1="265.35" x2="980.76" y2="266.68"/>
          </g>
        </g>
      </g>
      <g id="_Mirror_Repeat_-2" data-name="&amp;lt;Mirror Repeat&amp;gt;">
        <g class="cls-10">
          <g>
            <path class="cls-5" d="M46.07,274.16c.73,1.14,1.72,2.47,3.06,3.84,1.64,1.69,3.32,2.93,4.7,3.82,.03-15.64,.05-31.28,.08-46.92-1.22-.48-2.65-1.15-4.15-2.05-1.6-.97-2.82-1.96-3.73-2.79,.01,14.7,.02,29.4,.03,44.11Z"/>
            <path class="cls-4" d="M46.07,269.74c.74,.93,1.82,2.09,3.37,3.28,1.58,1.2,3.15,2.05,4.41,2.63"/>
            <path class="cls-4" d="M46.07,264.2c.87,.88,1.99,1.87,3.4,2.89,1.55,1.11,3.07,1.96,4.39,2.61"/>
            <path class="cls-4" d="M46.06,257.01c.14,.25,.3,.5,.47,.75,1.84,2.62,4.89,4.18,7.33,5.1"/>
            <path class="cls-4" d="M46.05,244.45c.78,.77,1.91,1.74,3.49,2.68,1.61,.96,3.15,1.58,4.35,1.98"/>
            <path class="cls-4" d="M46.06,250.49c.79,.86,1.88,1.89,3.36,2.92,1.61,1.13,3.19,1.92,4.47,2.47"/>
            <path class="cls-4" d="M46.05,237.83c.84,.81,2.1,1.86,3.9,2.84,1.45,.79,2.84,1.32,3.96,1.67"/>
          </g>
          <g>
            <path class="cls-5" d="M60.19,284.44c1.83,.82,3.86,1.65,6.08,2.46,2.64,.96,5.16,1.74,7.48,2.38,0-15.83,0-31.66-.01-47.49-2.59-.69-5.31-1.49-8.14-2.42-1.93-.64-3.77-1.29-5.51-1.94,.03,15.67,.06,31.34,.1,47.02Z"/>
            <path class="cls-4" d="M60.14,279.64c4.52,1.28,9.04,2.57,13.57,3.85"/>
            <path class="cls-4" d="M60.14,272.43c4.52,1.26,9.04,2.51,13.57,3.77"/>
            <path class="cls-4" d="M60.14,265.03c4.56,1.24,9.13,2.48,13.69,3.72"/>
            <path class="cls-4" d="M60.14,257.91c4.52,1.17,9.04,2.33,13.57,3.5"/>
            <path class="cls-4" d="M60.14,250.77c4.56,1.23,9.13,2.46,13.69,3.69"/>
            <path class="cls-4" d="M60.14,243.69c4.5,1.24,9,2.49,13.51,3.73"/>
          </g>
          <g>
            <path class="cls-5" d="M81.07,291.61c1.88,.61,3.9,1.21,6.08,1.78,2.63,.69,5.14,1.26,7.49,1.71,0-15.86-.01-31.72-.02-47.58-2.35-.48-4.83-1.07-7.43-1.76-2.21-.59-4.28-1.22-6.21-1.84,.03,15.9,.07,31.8,.1,47.69Z"/>
            <path class="cls-4" d="M81.03,286.13c4.53,1.04,9.05,2.08,13.58,3.12"/>
            <path class="cls-4" d="M81.03,278.92c4.53,.97,9.05,1.93,13.58,2.9"/>
            <path class="cls-4" d="M81.03,271.52c4.54,.89,9.08,1.78,13.61,2.67"/>
            <path class="cls-4" d="M81.03,264.4c4.53,.96,9.07,1.92,13.6,2.89"/>
            <path class="cls-4" d="M81.03,257.26c4.53,.92,9.07,1.85,13.6,2.77"/>
            <path class="cls-4" d="M81.03,250.18c4.53,.92,9.07,1.83,13.6,2.75"/>
          </g>
          <g>
            <path class="cls-5" d="M101.85,296.89c2.04,.42,4.19,.82,6.45,1.19,2.47,.4,4.85,.73,7.12,1,0-15.82-.01-31.64-.02-47.46-2.35-.4-4.76-.83-7.23-1.31-2.2-.43-4.34-.87-6.42-1.32,.03,15.97,.07,31.93,.1,47.9Z"/>
            <path class="cls-4" d="M101.84,290.73c4.53,.86,9.05,1.73,13.58,2.59"/>
            <path class="cls-4" d="M101.82,283.52c4.53,.82,9.06,1.65,13.59,2.47"/>
            <path class="cls-4" d="M101.81,276.13c4.53,.78,9.07,1.57,13.6,2.35"/>
            <path class="cls-4" d="M101.79,268.98c4.54,.73,9.07,1.46,13.61,2.2"/>
            <path class="cls-4" d="M101.78,261.87c4.54,.73,9.08,1.46,13.62,2.18"/>
            <path class="cls-4" d="M101.76,254.77c4.54,.75,9.09,1.5,13.63,2.26"/>
          </g>
          <g>
            <path class="cls-5" d="M123.25,300.57c2.04,.42,4.19,.82,6.45,1.19,2.47,.4,4.85,.73,7.12,1,0-16.02-.01-32.04-.02-48.06-2.23-.26-4.53-.57-6.91-.92-2.33-.35-4.58-.72-6.74-1.11,.03,15.97,.07,31.93,.1,47.9Z"/>
            <path class="cls-4" d="M123.24,294.42c4.53,.59,9.05,1.19,13.58,1.78"/>
            <path class="cls-4" d="M123.22,287.15c4.53,.61,9.06,1.22,13.59,1.84"/>
            <path class="cls-4" d="M123.21,279.77c4.53,.61,9.07,1.22,13.6,1.83"/>
            <path class="cls-4" d="M123.19,272.67c4.54,.6,9.08,1.21,13.62,1.81"/>
            <path class="cls-4" d="M123.18,265.51c4.54,.61,9.09,1.22,13.63,1.82"/>
            <path class="cls-4" d="M123.16,258.41c4.55,.62,9.1,1.23,13.65,1.85"/>
          </g>
          <g>
            <path class="cls-5" d="M144.5,304.03c2.1,.41,4.36,.8,6.76,1.15,2.38,.34,4.66,.61,6.81,.81,0-16.11-.01-32.22-.02-48.33-4.55-.59-9.1-1.18-13.64-1.76,.03,16.04,.07,32.09,.1,48.13Z"/>
            <line class="cls-4" x1="144.46" y1="298.12" x2="158.06" y2="299.44"/>
            <line class="cls-4" x1="144.46" y1="290.9" x2="158.06" y2="292.22"/>
            <line class="cls-4" x1="144.45" y1="283.51" x2="158.06" y2="284.83"/>
            <line class="cls-4" x1="144.46" y1="276.39" x2="158.06" y2="277.71"/>
            <line class="cls-4" x1="144.45" y1="269.25" x2="158.06" y2="270.57"/>
            <line class="cls-4" x1="144.46" y1="262.17" x2="158.06" y2="263.49"/>
          </g>
          <g>
            <path class="cls-5" d="M166.22,307.31c2.07,.39,4.39,.74,6.93,1.01,2.39,.25,4.61,.39,6.64,.45,0-16.18-.02-32.35-.02-48.53-4.55-.52-9.09-1.04-13.64-1.56,.03,16.21,.07,32.42,.1,48.63Z"/>
            <line class="cls-4" x1="166.17" y1="300.89" x2="179.78" y2="302.21"/>
            <line class="cls-4" x1="166.17" y1="293.67" x2="179.78" y2="294.99"/>
            <line class="cls-4" x1="166.17" y1="286.28" x2="179.78" y2="287.6"/>
            <line class="cls-4" x1="166.17" y1="279.16" x2="179.78" y2="280.48"/>
            <line class="cls-4" x1="166.17" y1="272.02" x2="179.78" y2="273.34"/>
            <line class="cls-4" x1="166.17" y1="264.94" x2="179.78" y2="266.26"/>
          </g>
          <g>
            <path class="cls-5" d="M187.92,309.61c2.07,.39,4.39,.74,6.93,1.01,2.39,.25,4.61,.39,6.64,.45,0-16.18-.02-32.35-.02-48.53-4.53-.44-9.06-.87-13.59-1.31,.02,16.13,.04,32.26,.05,48.39Z"/>
            <line class="cls-4" x1="187.87" y1="303.19" x2="201.48" y2="304.51"/>
            <line class="cls-4" x1="187.87" y1="295.97" x2="201.48" y2="297.29"/>
            <line class="cls-4" x1="187.87" y1="288.58" x2="201.48" y2="289.9"/>
            <line class="cls-4" x1="187.87" y1="281.46" x2="201.48" y2="282.78"/>
            <line class="cls-4" x1="187.87" y1="274.32" x2="201.48" y2="275.64"/>
            <line class="cls-4" x1="187.87" y1="267.24" x2="201.48" y2="268.56"/>
          </g>
          <g>
            <path class="cls-5" d="M209.9,311.33c2.07,.39,4.39,.74,6.93,1.01,2.39,.25,4.61,.39,6.64,.45,0-16.18-.02-32.35-.02-48.53-4.53-.44-9.06-.87-13.59-1.31,.02,16.13,.04,32.26,.05,48.39Z"/>
            <line class="cls-4" x1="209.86" y1="304.91" x2="223.47" y2="306.23"/>
            <line class="cls-4" x1="209.86" y1="297.69" x2="223.47" y2="299.01"/>
            <line class="cls-4" x1="209.85" y1="290.3" x2="223.46" y2="291.62"/>
            <line class="cls-4" x1="209.86" y1="283.18" x2="223.47" y2="284.5"/>
            <line class="cls-4" x1="209.85" y1="276.04" x2="223.46" y2="277.36"/>
            <line class="cls-4" x1="209.86" y1="268.96" x2="223.47" y2="270.28"/>
          </g>
        </g>
      </g>
    </g>
    <path id="COVER2" class="cls-9" d="M233.82,261.14l9.43,.34c-.19,19.06-.38,38.13-.57,57.19-.15,0-.29-.02-.44-.03-2.7-.16-5.34-.41-7.93-.74-.16-18.92-.33-37.84-.49-56.76Z"/>
    <path id="COVER1" class="cls-9" d="M956.65,259.02c1.22-.07,2.44-.15,3.65-.22-.12,19.31-.24,38.62-.36,57.93-.55,.07-1.11,.13-1.7,.18-.85,.08-1.68,.12-2.46,.15,.29-19.35,.58-38.69,.87-58.04Z"/>
  </g>
</svg>