<?xml version="1.0" encoding="UTF-8"?>
<svg xmlns="http://www.w3.org/2000/svg" xmlns:xlink="http://www.w3.org/1999/xlink" viewBox="0 0 1159.32 385.57">
  <defs>
    <style>
      .cls-1, .cls-2 {
        fill: none;
      }

      .cls-3 {
        stroke-width: .15px;
      }

      .cls-3, .cls-4, .cls-5 {
        fill: #fff;
      }

      .cls-3, .cls-4, .cls-5, .cls-6, .cls-2 {
        stroke: #231f20;
        stroke-miterlimit: 10;
      }

      .cls-7 {
        clip-path: url(#clippath);
      }

      .cls-8 {
        fill: #010101;
      }

      .cls-9, .cls-6 {
        fill: #c92127;
      }

      .cls-4 {
        stroke-width: .2px;
      }

      .cls-5 {
        stroke-width: .25px;
      }

      .cls-10 {
        clip-path: url(#clippath-1);
      }

      .cls-11 {
        filter: url(#drop-shadow-2);
      }

      .cls-12 {
        fill: transparent;
      }
    </style>
    <filter id="drop-shadow-1" filterUnits="userSpaceOnUse">
      <feOffset dx="8" dy="18"/>
      <feGaussianBlur result="blur" stdDeviation="20"/>
      <feFlood flood-color="#070808" flood-opacity=".75"/>
      <feComposite in2="blur" operator="in"/>
      <feComposite in="SourceGraphic"/>
    </filter>
    <filter id="drop-shadow-2" filterUnits="userSpaceOnUse">
      <feOffset dx="8" dy="18"/>
      <feGaussianBlur result="blur-2" stdDeviation="20"/>
      <feFlood flood-color="#070808" flood-opacity=".75"/>
      <feComposite in2="blur-2" operator="in"/>
      <feComposite in="SourceGraphic"/>
    </filter>
    <clipPath id="clippath">
      <rect class="cls-1" x="866.05" y="184.14" width="213.42" height="83.14"/>
    </clipPath>
    <clipPath id="clippath-1">
      <rect class="cls-1" x="75.08" y="184.14" width="213.42" height="83.14"/>
    </clipPath>
    <filter id="drop-shadow-3" filterUnits="userSpaceOnUse">
      <feOffset dx="8" dy="18"/>
      <feGaussianBlur result="blur-3" stdDeviation="20"/>
      <feFlood flood-color="#070808" flood-opacity=".75"/>
      <feComposite in2="blur-3" operator="in"/>
      <feComposite in="SourceGraphic"/>
    </filter>
    <filter id="drop-shadow-4" filterUnits="userSpaceOnUse">
      <feOffset dx="8" dy="18"/>
      <feGaussianBlur result="blur-4" stdDeviation="20"/>
      <feFlood flood-color="#070808" flood-opacity=".75"/>
      <feComposite in2="blur-4" operator="in"/>
      <feComposite in="SourceGraphic"/>
    </filter>
    <filter id="drop-shadow-5" filterUnits="userSpaceOnUse">
      <feOffset dx="8" dy="18"/>
      <feGaussianBlur result="blur-5" stdDeviation="20"/>
      <feFlood flood-color="#070808" flood-opacity=".75"/>
      <feComposite in2="blur-5" operator="in"/>
      <feComposite in="SourceGraphic"/>
    </filter>
    <filter id="drop-shadow-6" filterUnits="userSpaceOnUse">
      <feOffset dx="8" dy="18"/>
      <feGaussianBlur result="blur-6" stdDeviation="20"/>
      <feFlood flood-color="#070808" flood-opacity=".75"/>
      <feComposite in2="blur-6" operator="in"/>
      <feComposite in="SourceGraphic"/>
    </filter>
  </defs>
  <g id="_2D_BRACELET_UNICOLOR_MEDIUM_HIDDEN" data-name="2D BRACELET UNICOLOR MEDIUM" class="cls-11">
    <g id="left_string" data-name="left string">
      <g id="left_end" data-name="left end">
        <g>
          <path class="cls-8" d="M735.64,148.1l-8.16-.72c-43.66-3.84-120.5-14.4-121.27-14.51l.57-1.86c.72,.1,67.91,9.33,112.18,13.66-53.53-16.86-110.78-20.57-111.37-20.61l.07-1.91c.64,.04,64.41,4.16,120.81,23.48l7.19,2.46Z"/>
          <path class="cls-5" d="M609.87,150.72c-3.62-.32-5.66-.55-5.78-.56l.41-1.88c.59,.07,57.51,6.41,114.09-.76-44.38-3.48-112.4-6.14-113.13-6.17l-.09-1.92c.78,.03,78.57,3.08,122.24,6.92l8.16,.72-7.64,1.16c-49.47,7.48-101.25,3.99-118.26,2.49Z"/>
        </g>
        <path class="cls-8" d="M725.44,142.89l-.95,7.5c-.24,1.89,2.48,3.7,6.04,4.02h0c3.57,.31,6.68-.98,6.92-2.87l.95-7.5c.24-1.89-2.48-3.7-6.04-4.02h0c-3.57-.31-6.68,.98-6.92,2.87Z"/>
      </g>
      <g id="left_path" data-name="left path">
        <polygon class="cls-5" points="1015.35 183.86 1015.08 183.83 1059.08 165.56 1061.39 164.59 1082.38 166.44 1080.26 167.42 1036.26 185.7 1015.35 183.86"/>
        <polygon class="cls-8" points="735.28 143.76 742.47 136.53 764.68 138.48 734.33 151.26 735.28 143.76"/>
        <polygon class="cls-8" points="993.99 181.98 993.71 181.95 1037.71 163.68 1040.03 162.71 1061.01 164.56 1058.89 165.54 1014.89 183.82 993.99 181.98"/>
        <polygon class="cls-5" points="972.81 180.11 972.53 180.09 1016.53 161.81 1018.85 160.85 1039.83 162.7 1037.71 163.68 993.71 181.95 972.81 180.11"/>
        <polygon class="cls-8" points="951.63 178.25 951.35 178.22 995.35 159.95 997.67 158.99 1018.65 160.83 1016.53 161.81 972.53 180.09 951.63 178.25"/>
        <polygon class="cls-3" points="930.45 176.38 930.17 176.36 974.17 158.08 976.48 157.12 997.47 158.97 995.35 159.95 951.35 178.22 930.45 176.38"/>
        <polygon class="cls-8" points="909.27 174.52 908.99 174.5 952.99 156.22 955.3 155.26 976.29 157.1 974.17 158.08 930.17 176.36 909.27 174.52"/>
        <polygon class="cls-3" points="888.08 172.66 887.81 172.63 931.81 154.35 934.12 153.39 955.11 155.24 952.99 156.22 908.99 174.5 888.08 172.66"/>
        <polygon class="cls-8" points="866.9 170.79 866.63 170.77 910.63 152.49 912.94 151.53 933.93 153.38 931.81 154.35 887.81 172.63 866.9 170.79"/>
        <polygon class="cls-3" points="845.72 168.93 845.45 168.9 889.45 150.63 891.76 149.67 912.75 151.51 910.63 152.49 866.63 170.77 845.72 168.93"/>
        <polygon class="cls-8" points="824.54 167.06 824.27 167.04 868.27 148.76 870.58 147.8 891.57 149.65 889.45 150.63 845.45 168.9 824.54 167.06"/>
        <polygon class="cls-3" points="803.36 165.2 803.09 165.18 847.09 146.9 849.4 145.94 870.38 147.78 868.27 148.76 824.27 167.04 803.36 165.2"/>
        <polygon class="cls-8" points="782.18 163.34 781.91 163.31 825.91 145.03 828.22 144.07 849.2 145.92 847.09 146.9 803.09 165.18 782.18 163.34"/>
        <polygon class="cls-3" points="761 161.47 760.73 161.45 804.73 143.17 807.04 142.21 828.02 144.06 825.91 145.03 781.91 163.31 761 161.47"/>
        <polygon class="cls-8" points="739.82 159.61 739.55 159.58 783.55 141.31 785.86 140.34 806.84 142.19 804.73 143.17 760.73 161.45 739.82 159.61"/>
        <path class="cls-3" d="M734.35,151.08l30.33-12.6,20.98,1.85-2.12,.98-44,18.28h0c-2.5-4.1-2.69-4.4-5.19-8.51Z"/>
      </g>
    </g>
    <g id="right_string" data-name="right string">
      <g id="right_end" data-name="right end">
        <g>
          <path class="cls-8" d="M404.56,147.39l8.14-.84c43.58-4.49,121.29-8.68,122.07-8.72l-.05,1.92c-.73,.04-68.68,3.71-112.98,7.84,56.73,6.33,113.5-.85,114.09-.92l.45,1.87c-.64,.08-63.87,8.09-124.06-.1l-7.67-1.04Z"/>
          <path class="cls-5" d="M526.36,121.13c3.61-.37,5.67-.53,5.78-.54l.11,1.91c-.59,.05-57.76,4.6-110.92,22.25,44.18-4.98,111.15-15.2,111.87-15.31l.61,1.85c-.77,.12-77.37,11.81-120.94,16.3l-8.14,.84,7.13-2.57c46.15-16.61,97.54-22.97,114.51-24.72Z"/>
        </g>
        <path class="cls-8" d="M415.92,150.54l-1.11-7.49c-.28-1.89-3.42-3.14-6.98-2.77h0c-3.56,.37-6.24,2.21-5.96,4.1l1.11,7.49c.28,1.89,3.42,3.14,6.98,2.77h0c3.56-.37,6.24-2.21,5.96-4.1Z"/>
      </g>
      <g id="right_path" data-name="right path">
        <polygon class="cls-8" points="406.09 151.55 401.05 159.95 378.89 162.23 404.98 144.06 406.09 151.55"/>
        <polygon class="cls-8" points="143.71 163.08 143.98 163.06 106.1 189.15 104.1 190.52 83.16 192.68 84.96 191.33 122.85 165.23 143.71 163.08"/>
        <polygon class="cls-5" points="164.85 160.91 165.12 160.88 127.24 186.97 125.24 188.35 104.3 190.5 106.1 189.15 143.98 163.06 164.85 160.91"/>
        <polygon class="cls-8" points="185.98 158.73 186.26 158.7 148.37 184.8 146.38 186.17 125.44 188.33 127.24 186.97 165.12 160.88 185.98 158.73"/>
        <polygon class="cls-3" points="207.12 156.55 207.4 156.53 169.51 182.62 167.52 183.99 146.58 186.15 148.37 184.8 186.26 158.7 207.12 156.55"/>
        <polygon class="cls-8" points="228.26 154.38 228.53 154.35 190.65 180.45 188.65 181.82 167.71 183.97 169.51 182.62 207.4 156.53 228.26 154.38"/>
        <polygon class="cls-3" points="249.4 152.2 249.67 152.17 211.79 178.27 209.79 179.64 188.85 181.8 190.65 180.45 228.53 154.35 249.4 152.2"/>
        <polygon class="cls-8" points="270.53 150.03 270.81 150 232.92 176.09 230.93 177.47 209.99 179.62 211.79 178.27 249.67 152.17 270.53 150.03"/>
        <polygon class="cls-3" points="291.67 147.85 291.95 147.82 254.06 173.92 252.07 175.29 231.13 177.45 232.92 176.09 270.81 150 291.67 147.85"/>
        <polygon class="cls-8" points="312.81 145.67 313.09 145.64 275.2 171.74 273.21 173.11 252.26 175.27 254.06 173.92 291.95 147.82 312.81 145.67"/>
        <polygon class="cls-3" points="333.95 143.5 334.22 143.47 296.34 169.56 294.34 170.94 273.4 173.09 275.2 171.74 313.09 145.64 333.95 143.5"/>
        <polygon class="cls-8" points="355.08 141.32 355.36 141.29 317.47 167.39 315.48 168.76 294.54 170.92 296.34 169.56 334.22 143.47 355.08 141.32"/>
        <polygon class="cls-3" points="376.22 139.14 376.5 139.11 338.61 165.21 336.62 166.58 315.68 168.74 317.47 167.39 355.36 141.29 376.22 139.14"/>
        <polygon class="cls-8" points="397.36 136.97 397.64 136.94 359.75 163.03 357.76 164.41 336.81 166.56 338.61 165.21 376.5 139.11 397.36 136.97"/>
        <path class="cls-3" d="M405.01,144.24l-26.11,17.99-20.94,2.16,1.8-1.35,37.89-26.1h0c3.55,3.52,3.82,3.78,7.37,7.31Z"/>
      </g>
    </g>
    <path id="RIGHT_SIDE_1" data-name="RIGHT SIDE 1" class="cls-6" d="M919.12,190.51c12.46,.98,25.63,2.33,39.41,4.17,11.82,1.58,23.08,3.38,33.73,5.32l88.51-4.43c1.56-13.16,2.66-22.85,3.03-26.02,.05-.41,.18-1.5-.22-2.84-.73-2.42-2.68-3.94-3.54-4.57-13.01-9.57-44.98-15.44-44.98-15.44-14.8-2.72-22.2-4.08-24.74-4.49-25.62-4.18-46.3-6.35-63.15-8.1-5.58-.58-13.39-1.34-22.8-2.19l-40.96,14.24c-.91,9.16-1.83,18.32-2.74,27.48,12.82,5.63,25.63,11.25,38.45,16.88Z"/>
    <path id="RIGHT_SIDE_2" data-name="RIGHT SIDE 2" class="cls-6" d="M1083.86,169.54c-.38,3.37-2.74,6.06-2.97,6.31-1.11,1.23-2.23,1.95-2.7,2.24-6.24,3.87-19.56,8.63-22.48,9.66-7.34,2.27-18.07,5.32-31.25,8.12-13.59,2.89-24.1,4.34-30.03,5.08-69.74,8.77-97.63,10.8-97.63,10.8-5.56,.35-10.93,.69-16.12,1.01v58.99c15.1-1.27,48.49-4.25,78.9-8.13,14.15-1.81,26.3-3.65,30.37-4.28,17.2-2.64,27.46-4.58,30.67-5.2,9.04-1.74,15.02-2.93,21.2-4.5,2.7-.69,5.04-1.35,6.98-1.91,7.08-2.06,13.07-3.82,20.1-7.04,6.39-2.93,9.27-5.06,10.99-6.48,1.96-1.61,3.41-3.13,4.38-4.23v-61.93"/>
    <path id="CENTER_BENDED" data-name="CENTER BENDED" class="cls-6" d="M880.42,271.64c-6.85,.44-10.85,.67-10.85,.67-55.65,3.29-97.68,4.53-136.12,5.63-12.33,.35-57.45,1.6-118.02,2.17-36.8,.34-92.77,.82-166.55-.58-23.25-.44-78.18-1.63-148.45-4.91,0,0-8.88-.41-23.87-1.25v-58.24c.98,.05,1.96,.1,2.94,.15,66.75,3.31,118.84,4.49,137.31,4.88,121.17,2.57,216.18,1.13,254.55,.4,65.67-1.24,116.38-3.52,209.07-7.92"/>
    <path id="line_curved" data-name="line curved" class="cls-12" d="M873.61,267.14c-55.69,3.15-98.07,4.37-136.89,5.45-12.69,.35-59.14,1.6-121.49,2.17-37.88,.34-95.5,.82-171.44-.58-23.93-.44-80.48-1.63-152.81-4.91,0,0-3.04-.14-8.57-.41v-3.71c5.53,.28,8.57,.41,8.57,.41,72.34,3.28,128.88,4.47,152.81,4.91,75.94,1.39,133.56,.92,171.44,.58,62.35-.56,108.8-1.81,121.49-2.17,38.82-1.08,81.2-2.29,136.89-5.45v3.71Z"/>
    <text font-size="7em" font-family='Low Gun Screen'>
      <textPath id="MAIN_NAME" fill="white" xlink:href="#line_curved" startOffset="75%" text-anchor="middle">
        NAME
      </textPath>
    </text>
    <path id="LEFT_SIDE_1" data-name="LEFT SIDE 1" class="cls-6" d="M222.63,194.39c-9.78,.96-19.89,2.11-30.29,3.47-10.06,1.32-19.79,2.76-29.16,4.29l-88.08-.76c-1.02-6.15-3.35-21.28-2.47-28.61,.07-.57,.18-1.32,.53-2.24,1.8-4.79,7.28-7.35,12.2-9.62,2.12-.97,4.23-1.71,8.44-3.17,4.68-1.63,10.24-3.35,10.24-3.35h0c9.3-2.89,27.73-7.68,77.11-14.63,12.36-1.74,24.36-3.14,35.96-4.27l35.16,16.25,2.45,23.27-32.09,19.37Z"/>
    <path id="LEFT_SIDE_2" data-name="LEFT SIDE 2" class="cls-6" d="M72.51,172.77c-.05,.58-.03,1.24,.1,1.94,.42,2.25,2.04,4.99,9.85,9.2,3.94,2.13,9.77,4.8,17.49,6.77,14.67,3.83,22,5.74,25.45,6.4,29.72,5.71,45.49,7.68,45.49,7.68,54.25,6.77,86.11,9.12,86.11,9.12,6.67,.49,13.2,.95,19.56,1.37v58.24c-16.93-1.24-44.19-3.42-74.83-6.55,0,0-23.47-2.4-60.25-8.66,0,0-7.23-1.23-28.1-6.21,0,0-21.58-5.14-32.14-12.13-4.27-2.82-7.61-6.21-7.61-6.21-.75-.76-1.45-1.52-2.09-2.27v-58.76"/>
    <g>
      <g id="_Mirror_Repeat_" data-name="&amp;lt;Mirror Repeat&amp;gt;">
        <g class="cls-7">
          <g>
            <path class="cls-5" d="M1075.61,232.37c1.61-1.37,2.8-2.7,3.68-3.84,.01-14.7,.02-29.4,.04-44.11-1.08,.83-2.55,1.82-4.48,2.79l.76,45.15Z"/>
            <path class="cls-4" d="M1079.29,224.12c-.84,.88-2.05,1.97-3.75,3.08"/>
            <path class="cls-4" d="M1079.29,218.57c-1.01,.84-2.29,1.8-3.89,2.77"/>
            <path class="cls-4" d="M1079.3,211.38c-.17,.25-.36,.5-.57,.75-.92,1.09-2.1,2-3.37,2.76"/>
            <path class="cls-4" d="M1079.31,198.82c-.93,.77-2.29,1.74-4.19,2.68"/>
            <path class="cls-4" d="M1079.3,204.86c-.95,.86-2.26,1.89-4.03,2.92"/>
            <path class="cls-4" d="M1079.32,192.2c-.95,.77-2.35,1.74-4.31,2.67"/>
          </g>
          <g>
            <path class="cls-5" d="M978.84,256.13c2.71-.37,5.3-.77,7.74-1.19,.04-15.97,.08-31.93,.12-47.9-2.59,.39-5.29,.76-8.09,1.11l.23,47.98Z"/>
            <path class="cls-4" d="M986.6,248.8c-2.55,.28-5.11,.56-7.66,.84"/>
            <path class="cls-4" d="M986.61,241.53c-2.58,.29-5.17,.58-7.75,.87"/>
            <path class="cls-4" d="M986.63,234.14c-2.6,.29-5.2,.58-7.8,.87"/>
            <path class="cls-4" d="M986.65,227.04c-2.63,.29-5.27,.58-7.9,.87"/>
            <path class="cls-4" d="M986.67,219.88c-2.65,.3-5.3,.59-7.95,.89"/>
            <path class="cls-4" d="M986.68,212.78c-2.67,.3-5.34,.6-8.02,.9"/>
          </g>
        </g>
      </g>
      <g id="_Mirror_Repeat_-2" data-name="&amp;lt;Mirror Repeat&amp;gt;">
        <g class="cls-10">
          <g>
            <path class="cls-5" d="M78.94,232.37c-1.61-1.37-2.8-2.7-3.68-3.84-.01-14.7-.02-29.4-.04-44.11,1.08,.83,2.55,1.82,4.48,2.79l-.76,45.15Z"/>
            <path class="cls-4" d="M75.26,224.12c.84,.88,2.04,1.97,3.74,3.08"/>
            <path class="cls-4" d="M75.26,218.57c1,.84,2.27,1.78,3.85,2.74"/>
            <path class="cls-4" d="M75.25,211.38c.17,.25,.36,.5,.57,.75,.94,1.11,2.14,2.03,3.43,2.8"/>
            <path class="cls-4" d="M75.24,198.82c.93,.77,2.29,1.74,4.19,2.68"/>
            <path class="cls-4" d="M75.24,204.86c.95,.86,2.26,1.89,4.03,2.92"/>
            <path class="cls-4" d="M75.23,192.2c.95,.77,2.35,1.74,4.32,2.67"/>
          </g>
          <g>
            <path class="cls-5" d="M175.71,256.13c-2.71-.37-5.3-.77-7.74-1.19-.04-15.97-.08-31.93-.12-47.9,2.59,.39,5.29,.76,8.09,1.11l-.23,47.98Z"/>
            <path class="cls-4" d="M167.95,248.8c2.58,.28,5.15,.56,7.73,.84"/>
            <path class="cls-4" d="M167.93,241.53c2.62,.29,5.24,.59,7.85,.88"/>
            <path class="cls-4" d="M167.92,234.14c2.62,.29,5.25,.59,7.87,.88"/>
            <path class="cls-4" d="M167.9,227.04c2.64,.29,5.28,.58,7.92,.88"/>
            <path class="cls-4" d="M167.88,219.88c2.64,.29,5.29,.59,7.93,.88"/>
            <path class="cls-4" d="M167.86,212.78c2.65,.3,5.29,.6,7.94,.89"/>
          </g>
        </g>
      </g>
    </g>
    <path id="COVER2" class="cls-9" d="M269.16,215.51l9.44,.34c-.19,19.04-.38,38.08-.57,57.12-.96,0-1.95-.02-2.97-.07-1.7-.07-3.31-.21-4.83-.39-.36-19-.72-38-1.08-57.01Z"/>
    <path id="COVER1" class="cls-9" d="M878.62,213.26c1.59-.02,3.18-.04,4.76-.06-.16,19.27-.32,38.54-.47,57.81-.6,.04-1.21,.08-1.83,.11-1.23,.07-2.44,.12-3.64,.16,.39-19.34,.79-38.68,1.18-58.02Z"/>
  </g>
</svg>